<svg width="362" height="498" viewBox="0 0 362 498" fill="none" xmlns="http://www.w3.org/2000/svg">
<rect x="15" y="1.78906" width="331.82" height="222.75" rx="9.5" fill="#F8FAFF" stroke="#C3DDFF"/>
<path opacity="0.3" d="M104.5 225.289L104.5 1.28907" stroke="#005DB5" stroke-linecap="round" stroke-linejoin="round" stroke-dasharray="2.39 2.39"/>
<path opacity="0.3" d="M141.5 225.289L141.5 1.28907" stroke="#005DB5" stroke-linecap="round" stroke-linejoin="round" stroke-dasharray="2.39 2.39"/>
<path opacity="0.3" d="M148.5 225.289L148.5 1.28907" stroke="#005DB5" stroke-linecap="round" stroke-linejoin="round" stroke-dasharray="2.39 2.39"/>
<path opacity="0.3" d="M190.5 225.289L190.5 1.28907" stroke="#005DB5" stroke-linecap="round" stroke-linejoin="round" stroke-dasharray="2.39 2.39"/>
<path opacity="0.3" d="M196.5 225.289L196.5 1.28907" stroke="#005DB5" stroke-linecap="round" stroke-linejoin="round" stroke-dasharray="2.39 2.39"/>
<path opacity="0.3" d="M258.5 225.289L258.5 1.28907" stroke="#005DB5" stroke-linecap="round" stroke-linejoin="round" stroke-dasharray="2.39 2.39"/>
<path opacity="0.3" d="M276.5 225.289L276.5 1.28907" stroke="#005DB5" stroke-linecap="round" stroke-linejoin="round" stroke-dasharray="2.39 2.39"/>
<path opacity="0.3" d="M86.5 225.289L86.5 1.28907" stroke="#005DB5" stroke-linecap="round" stroke-linejoin="round" stroke-dasharray="2.39 2.39"/>
<path opacity="0.3" d="M14.5 83.2891L347.5 83.289" stroke="#005DB5" stroke-linecap="round" stroke-linejoin="round" stroke-dasharray="2.39 2.39"/>
<path opacity="0.3" d="M14.5 65.2891L347.5 65.289" stroke="#005DB5" stroke-linecap="round" stroke-linejoin="round" stroke-dasharray="2.39 2.39"/>
<path opacity="0.3" d="M14.5 161.289L347.5 161.289" stroke="#005DB5" stroke-linecap="round" stroke-linejoin="round" stroke-dasharray="2.39 2.39"/>
<path opacity="0.3" d="M14.5 143.289L347.5 143.289" stroke="#005DB5" stroke-linecap="round" stroke-linejoin="round" stroke-dasharray="2.39 2.39"/>
<path opacity="0.3" d="M14.5 101.289L347.5 101.289" stroke="#005DB5" stroke-linecap="round" stroke-linejoin="round" stroke-dasharray="2.39 2.39"/>
<path d="M177.994 83.2927C182.221 83.2947 186.45 83.279 190.677 83.3006C190.642 94.5397 190.671 105.779 190.661 117.02C190.683 125.475 190.548 133.936 190.993 142.384C187.244 142.386 183.496 142.386 179.745 142.386C179.538 140.356 179.369 138.325 179.137 136.301C178.733 136.72 178.445 137.228 178.119 137.706C176.327 140.151 173.647 141.882 170.73 142.678C167.172 143.665 163.269 143.458 159.871 141.988C156.796 140.676 154.199 138.358 152.402 135.555C150.187 132.148 149.106 128.1 148.889 124.069C148.677 119.974 149.161 115.778 150.78 111.983C152.213 108.553 154.624 105.491 157.778 103.485C160.895 101.463 164.687 100.56 168.384 100.824C171.201 101.009 174.102 101.786 176.293 103.638C176.944 104.155 177.409 104.85 177.974 105.452C178.021 98.066 177.98 90.6784 177.994 83.2927ZM168.276 110.694C166.656 111.102 165.211 112.089 164.189 113.402C162.49 115.674 161.776 118.534 161.696 121.336C161.599 124.408 162.151 127.652 164.024 130.173C166.162 133.143 170.534 134.066 173.757 132.397C175.701 131.415 177.094 129.509 177.588 127.405C178.064 125.75 177.992 124.014 177.994 122.309C177.982 120.407 178.064 118.495 177.796 116.607C177.358 114.636 176.199 112.8 174.51 111.67C172.709 110.439 170.365 110.161 168.276 110.694Z" fill="#005DB5"/>
<path d="M107.409 104.346C111.552 102.146 116.24 101.143 120.893 100.847C125.281 100.612 129.914 100.951 133.817 103.153C136.746 104.771 138.925 107.565 139.986 110.715C141.116 113.861 141.206 117.244 141.159 120.551C141.183 126.495 141.069 132.443 141.32 138.383C141.395 139.723 141.536 141.057 141.74 142.385C137.937 142.385 134.131 142.385 130.326 142.385C130.112 141.235 129.898 140.087 129.698 138.935C129.665 138.671 129.561 138.43 129.427 138.206C127.46 140.557 124.7 142.191 121.707 142.841C118.359 143.58 114.72 143.474 111.576 142.011C108.865 140.773 106.652 138.496 105.501 135.752C104.094 132.462 104.232 128.628 105.528 125.331C106.846 122.052 109.648 119.58 112.798 118.097C117.653 115.81 123.113 115.27 128.419 115.25C128.457 113.908 128.192 112.474 127.24 111.467C126.128 110.249 124.463 109.753 122.874 109.553C118.325 109.069 113.702 110.284 109.744 112.503C108.963 109.784 108.186 107.065 107.409 104.346ZM120.818 124.336C119.335 124.955 117.894 125.986 117.345 127.561C116.687 129.428 116.915 131.804 118.445 133.193C119.8 134.382 121.768 134.576 123.476 134.222C126.224 133.659 128.659 131.254 128.78 128.378C128.876 126.64 128.804 124.896 128.825 123.157C126.126 123.176 123.351 123.31 120.818 124.336Z" fill="#005DB5"/>
<path d="M196.665 101.686C200.971 101.684 205.274 101.684 209.58 101.686C210.553 106.662 211.524 111.638 212.495 116.616C213.218 120.412 213.983 124.205 214.568 128.027C214.784 129.293 214.948 130.568 215.205 131.826C215.611 130.929 215.629 129.91 215.87 128.96C217.81 119.791 220.364 110.768 222.665 101.686C226 101.686 229.332 101.684 232.667 101.686C234.985 111.089 237.559 120.44 239.389 129.955C239.54 130.58 239.562 131.25 239.874 131.828C240.409 128.84 240.723 125.813 241.319 122.834C242.579 115.74 244.265 108.732 245.752 101.684C249.889 101.688 254.026 101.682 258.163 101.686C253.999 115.252 249.832 128.819 245.664 142.383C241.692 142.385 237.72 142.385 233.748 142.383C232.498 137.715 231.247 133.046 229.999 128.378C229.175 124.93 228.385 121.474 227.8 117.977C227.628 117.086 227.504 116.183 227.271 115.305C227.047 115.84 227 116.42 226.91 116.986C226.327 120.761 225.501 124.495 224.466 128.17C223.118 132.909 221.765 137.646 220.413 142.385C216.441 142.385 212.471 142.383 208.499 142.385C204.552 128.819 200.608 115.252 196.665 101.686Z" fill="#005DB5"/>
<rect opacity="0.2" x="258.5" y="65.2891" width="18" height="18" fill="#005DB5"/>
<rect opacity="0.2" x="258.5" y="143.289" width="18" height="18" fill="#005DB5"/>
<rect opacity="0.2" x="86.5" y="143.289" width="18" height="18" fill="#005DB5"/>
<rect opacity="0.2" x="86.5" y="65.2891" width="18" height="18" fill="#005DB5"/>
<g filter="url(#filter0_d_8239_3614)">
<rect x="14.5" y="255.289" width="332.821" height="223.745" rx="10" fill="#005DB5"/>
</g>
<path opacity="0.5" d="M104.5 479.289L104.5 255.289" stroke="white" stroke-linecap="round" stroke-linejoin="round" stroke-dasharray="2.39 2.39"/>
<path opacity="0.5" d="M141.5 479.289L141.5 255.289" stroke="white" stroke-linecap="round" stroke-linejoin="round" stroke-dasharray="2.39 2.39"/>
<path opacity="0.5" d="M148.5 479.289L148.5 255.289" stroke="white" stroke-linecap="round" stroke-linejoin="round" stroke-dasharray="2.39 2.39"/>
<path opacity="0.5" d="M190.5 479.289L190.5 255.289" stroke="white" stroke-linecap="round" stroke-linejoin="round" stroke-dasharray="2.39 2.39"/>
<path opacity="0.5" d="M196.5 479.289L196.5 255.289" stroke="white" stroke-linecap="round" stroke-linejoin="round" stroke-dasharray="2.39 2.39"/>
<path opacity="0.5" d="M258.5 479.289L258.5 255.289" stroke="white" stroke-linecap="round" stroke-linejoin="round" stroke-dasharray="2.39 2.39"/>
<path opacity="0.5" d="M276.5 479.289L276.5 255.289" stroke="white" stroke-linecap="round" stroke-linejoin="round" stroke-dasharray="2.39 2.39"/>
<path opacity="0.5" d="M86.5 479.289L86.5 255.289" stroke="white" stroke-linecap="round" stroke-linejoin="round" stroke-dasharray="2.39 2.39"/>
<path opacity="0.5" d="M14.5 337.289L347.5 337.289" stroke="white" stroke-linecap="round" stroke-linejoin="round" stroke-dasharray="2.39 2.39"/>
<path opacity="0.5" d="M14.5 319.289L347.5 319.289" stroke="white" stroke-linecap="round" stroke-linejoin="round" stroke-dasharray="2.39 2.39"/>
<path opacity="0.5" d="M14.5 415.289L347.5 415.289" stroke="white" stroke-linecap="round" stroke-linejoin="round" stroke-dasharray="2.39 2.39"/>
<path opacity="0.5" d="M14.5 397.289L347.5 397.289" stroke="white" stroke-linecap="round" stroke-linejoin="round" stroke-dasharray="2.39 2.39"/>
<path opacity="0.5" d="M14.5 355.289L347.5 355.289" stroke="white" stroke-linecap="round" stroke-linejoin="round" stroke-dasharray="2.39 2.39"/>
<path d="M177.994 337.293C182.221 337.295 186.45 337.279 190.677 337.301C190.642 348.54 190.671 359.779 190.661 371.02C190.683 379.475 190.548 387.936 190.993 396.384C187.244 396.386 183.496 396.386 179.745 396.386C179.538 394.356 179.369 392.325 179.137 390.301C178.733 390.72 178.445 391.228 178.119 391.706C176.327 394.151 173.647 395.882 170.73 396.678C167.172 397.665 163.269 397.458 159.871 395.988C156.796 394.676 154.199 392.358 152.402 389.555C150.187 386.148 149.106 382.1 148.889 378.069C148.677 373.974 149.161 369.778 150.78 365.983C152.213 362.553 154.624 359.491 157.778 357.485C160.895 355.463 164.687 354.56 168.384 354.824C171.201 355.009 174.102 355.786 176.293 357.638C176.944 358.155 177.409 358.85 177.974 359.452C178.021 352.066 177.98 344.678 177.994 337.293ZM168.276 364.694C166.656 365.102 165.211 366.089 164.189 367.402C162.49 369.674 161.776 372.534 161.696 375.336C161.599 378.408 162.151 381.652 164.024 384.173C166.162 387.143 170.534 388.066 173.757 386.397C175.701 385.415 177.094 383.509 177.588 381.405C178.064 379.75 177.992 378.014 177.994 376.309C177.982 374.407 178.064 372.495 177.796 370.607C177.358 368.636 176.199 366.8 174.51 365.67C172.709 364.439 170.365 364.161 168.276 364.694Z" fill="white"/>
<path d="M107.409 358.346C111.552 356.146 116.24 355.143 120.893 354.847C125.281 354.612 129.914 354.951 133.817 357.153C136.746 358.771 138.925 361.565 139.986 364.715C141.116 367.861 141.206 371.244 141.159 374.551C141.183 380.495 141.069 386.443 141.32 392.383C141.395 393.723 141.536 395.057 141.74 396.385C137.937 396.385 134.131 396.385 130.326 396.385C130.112 395.235 129.898 394.087 129.698 392.935C129.665 392.671 129.561 392.43 129.427 392.206C127.46 394.557 124.7 396.191 121.707 396.841C118.359 397.58 114.72 397.474 111.576 396.011C108.865 394.773 106.652 392.496 105.501 389.752C104.094 386.462 104.232 382.628 105.528 379.331C106.846 376.052 109.648 373.58 112.798 372.097C117.653 369.81 123.113 369.27 128.419 369.25C128.457 367.908 128.192 366.474 127.24 365.467C126.128 364.249 124.463 363.753 122.874 363.553C118.325 363.069 113.702 364.284 109.744 366.503C108.963 363.784 108.186 361.065 107.409 358.346ZM120.818 378.336C119.335 378.955 117.894 379.986 117.345 381.561C116.687 383.428 116.915 385.804 118.445 387.193C119.8 388.382 121.768 388.576 123.476 388.222C126.224 387.659 128.659 385.254 128.78 382.378C128.876 380.64 128.804 378.896 128.825 377.157C126.126 377.176 123.351 377.31 120.818 378.336Z" fill="white"/>
<path d="M196.665 355.686C200.971 355.684 205.274 355.684 209.58 355.686C210.553 360.662 211.524 365.638 212.495 370.616C213.218 374.412 213.983 378.205 214.568 382.027C214.784 383.293 214.948 384.568 215.205 385.826C215.611 384.929 215.629 383.91 215.87 382.96C217.81 373.791 220.364 364.768 222.665 355.686C226 355.686 229.332 355.684 232.667 355.686C234.985 365.089 237.559 374.44 239.389 383.955C239.54 384.58 239.562 385.25 239.874 385.828C240.409 382.84 240.723 379.813 241.319 376.834C242.579 369.74 244.265 362.732 245.752 355.684C249.889 355.688 254.026 355.682 258.163 355.686C253.999 369.252 249.832 382.819 245.664 396.383C241.692 396.385 237.72 396.385 233.748 396.383C232.498 391.715 231.247 387.046 229.999 382.378C229.175 378.93 228.385 375.474 227.8 371.977C227.628 371.086 227.504 370.183 227.271 369.305C227.047 369.84 227 370.42 226.91 370.986C226.327 374.761 225.501 378.495 224.466 382.17C223.118 386.909 221.765 391.646 220.413 396.385C216.441 396.385 212.471 396.383 208.499 396.385C204.552 382.819 200.608 369.252 196.665 355.686Z" fill="white"/>
<rect opacity="0.2" x="258.5" y="319.289" width="18" height="18" fill="white"/>
<rect opacity="0.2" x="258.5" y="397.289" width="18" height="18" fill="white"/>
<rect opacity="0.2" x="86.5" y="397.289" width="18" height="18" fill="white"/>
<rect opacity="0.2" x="86.5" y="319.289" width="18" height="18" fill="white"/>
<defs>
<filter id="filter0_d_8239_3614" x="0.5" y="245.289" width="360.82" height="251.744" filterUnits="userSpaceOnUse" color-interpolation-filters="sRGB">
<feFlood flood-opacity="0" result="BackgroundImageFix"/>
<feColorMatrix in="SourceAlpha" type="matrix" values="0 0 0 0 0 0 0 0 0 0 0 0 0 0 0 0 0 0 127 0" result="hardAlpha"/>
<feOffset dy="4"/>
<feGaussianBlur stdDeviation="7"/>
<feComposite in2="hardAlpha" operator="out"/>
<feColorMatrix type="matrix" values="0 0 0 0 0.305882 0 0 0 0 0.623529 0 0 0 0 1 0 0 0 0.12 0"/>
<feBlend mode="normal" in2="BackgroundImageFix" result="effect1_dropShadow_8239_3614"/>
<feBlend mode="normal" in="SourceGraphic" in2="effect1_dropShadow_8239_3614" result="shape"/>
</filter>
</defs>
</svg>
