<svg width="462" height="324" viewBox="0 0 462 324" fill="none" xmlns="http://www.w3.org/2000/svg">
<rect x="0.142578" y="0.289062" width="222.857" height="95.7273" rx="8" fill="#F8FAFF"/>
<path d="M109.89 33.2909C112.003 33.2919 114.118 33.284 116.231 33.2948C116.213 38.9144 116.228 44.534 116.223 50.1545C116.234 54.3822 116.166 58.6128 116.389 62.8365C114.515 62.8375 112.641 62.8375 110.765 62.8375C110.661 61.8227 110.577 60.8069 110.461 59.7951C110.259 60.0047 110.115 60.2584 109.952 60.4974C109.056 61.7198 107.716 62.5857 106.258 62.9834C104.479 63.4771 102.527 63.3733 100.828 62.6386C99.2904 61.9824 97.9919 60.8236 97.0935 59.4219C95.9862 57.7185 95.4458 55.6947 95.3369 53.6789C95.231 51.6317 95.4733 49.5335 96.2824 47.6361C96.9993 45.921 98.2047 44.39 99.7817 43.3869C101.34 42.3761 103.236 41.9245 105.085 42.0567C106.493 42.1488 107.944 42.5377 109.039 43.4634C109.365 43.7219 109.597 44.0697 109.88 44.3704C109.903 40.6775 109.883 36.9837 109.89 33.2909ZM105.031 46.9916C104.221 47.1954 103.498 47.689 102.987 48.3453C102.138 49.4816 101.781 50.9117 101.74 52.3124C101.692 53.8483 101.968 55.4704 102.905 56.7311C103.974 58.2161 106.16 58.6774 107.771 57.8429C108.743 57.3521 109.439 56.399 109.686 55.347C109.925 54.5193 109.889 53.6514 109.89 52.7993C109.884 51.8481 109.925 50.8921 109.79 49.9478C109.572 48.9624 108.992 48.0446 108.148 47.4794C107.247 46.8643 106.075 46.7252 105.031 46.9916Z" fill="#005DB5"/>
<path d="M74.5973 43.8165C76.6687 42.7165 79.0127 42.215 81.3391 42.0671C83.533 41.9495 85.8496 42.119 87.8013 43.22C89.2656 44.0291 90.3552 45.4259 90.8858 47.001C91.4507 48.5741 91.4958 50.2657 91.4723 51.9192C91.484 54.8911 91.4272 57.8649 91.5527 60.8349C91.59 61.5049 91.6606 62.1719 91.7626 62.8361C89.8609 62.8361 87.9582 62.8361 86.0555 62.8361C85.9486 62.2611 85.8417 61.6871 85.7417 61.1111C85.725 60.9789 85.673 60.8584 85.6063 60.7467C84.6226 61.9222 83.2427 62.7391 81.7461 63.0643C80.0719 63.4336 78.2526 63.3807 76.6804 62.649C75.325 62.0299 74.2187 60.8917 73.643 59.5194C72.9398 57.8747 73.0084 55.9578 73.6567 54.3093C74.3158 52.6695 75.7163 51.4333 77.2914 50.6918C79.7188 49.5487 82.4493 49.2784 85.1022 49.2686C85.1208 48.5976 84.9884 47.8806 84.5128 47.3771C83.9567 46.7678 83.124 46.52 82.3296 46.4201C80.0552 46.1782 77.7436 46.7855 75.7644 47.8953C75.374 46.5357 74.9857 45.1761 74.5973 43.8165ZM81.3018 53.8117C80.5603 54.1212 79.8395 54.6364 79.5648 55.424C79.2363 56.3574 79.3501 57.5456 80.1151 58.2401C80.7928 58.8347 81.7765 58.9317 82.6307 58.7544C84.0047 58.4732 85.2219 57.2704 85.2827 55.8324C85.3307 54.9636 85.2944 54.0918 85.3052 53.222C83.9557 53.2318 82.5679 53.2984 81.3018 53.8117Z" fill="#005DB5"/>
<path d="M119.225 42.4873C121.377 42.4863 123.529 42.4863 125.682 42.4873C126.168 44.9753 126.654 47.4633 127.139 49.9523C127.501 51.8507 127.884 53.747 128.176 55.6581C128.284 56.2909 128.366 56.9286 128.495 57.5574C128.698 57.1088 128.707 56.5994 128.827 56.1244C129.797 51.5402 131.074 47.0284 132.225 42.4873C133.892 42.4873 135.558 42.4863 137.226 42.4873C138.385 47.1891 139.672 51.8644 140.587 56.622C140.662 56.9344 140.673 57.2694 140.829 57.5584C141.097 56.0646 141.254 54.5512 141.552 53.0614C142.181 49.5145 143.025 46.0107 143.768 42.4863C145.837 42.4883 147.905 42.4853 149.974 42.4873C147.891 49.2706 145.808 56.0538 143.724 62.8361C141.738 62.8371 139.752 62.8371 137.766 62.8361C137.141 60.5019 136.515 58.1677 135.892 55.8334C135.48 54.1095 135.085 52.3816 134.792 50.6331C134.706 50.1874 134.644 49.7359 134.527 49.297C134.416 49.5644 134.392 49.8544 134.347 50.1375C134.056 52.025 133.643 53.892 133.125 55.7296C132.451 58.0991 131.774 60.4676 131.099 62.8371C129.113 62.8371 127.128 62.8361 125.142 62.8371C123.168 56.0538 121.196 49.2706 119.225 42.4873Z" fill="#005DB5"/>
<rect x="239" y="0.289062" width="222.857" height="95.7273" rx="8" fill="#E1E4ED"/>
<path d="M348.747 33.2909C350.86 33.2919 352.975 33.284 355.089 33.2948C355.071 38.9144 355.086 44.534 355.081 50.1545C355.091 54.3822 355.024 58.6128 355.246 62.8365C353.372 62.8375 351.498 62.8375 349.623 62.8375C349.519 61.8227 349.434 60.8069 349.319 59.7951C349.117 60.0047 348.973 60.2584 348.81 60.4974C347.913 61.7198 346.574 62.5857 345.115 62.9834C343.336 63.4771 341.384 63.3733 339.686 62.6386C338.148 61.9824 336.849 60.8236 335.951 59.4219C334.844 57.7185 334.303 55.6947 334.194 53.6789C334.088 51.6317 334.331 49.5335 335.14 47.6361C335.857 45.921 337.062 44.39 338.639 43.3869C340.198 42.3761 342.093 41.9245 343.942 42.0567C345.351 42.1488 346.801 42.5377 347.897 43.4634C348.222 43.7219 348.455 44.0697 348.737 44.3704C348.761 40.6775 348.74 36.9837 348.747 33.2909ZM343.888 46.9916C343.078 47.1954 342.355 47.689 341.844 48.3453C340.995 49.4816 340.638 50.9117 340.598 52.3124C340.55 53.8483 340.825 55.4704 341.762 56.7311C342.831 58.2161 345.017 58.6774 346.628 57.8429C347.6 57.3521 348.297 56.399 348.544 55.347C348.782 54.5193 348.746 53.6514 348.747 52.7993C348.741 51.8481 348.782 50.8921 348.648 49.9478C348.429 48.9624 347.85 48.0446 347.005 47.4794C346.105 46.8643 344.933 46.7252 343.888 46.9916Z" fill="#005DB5"/>
<path d="M313.455 43.8165C315.526 42.7165 317.87 42.215 320.196 42.0671C322.39 41.9495 324.707 42.119 326.659 43.22C328.123 44.0291 329.213 45.4259 329.743 47.001C330.308 48.5741 330.353 50.2657 330.33 51.9192C330.341 54.8911 330.285 57.8649 330.41 60.8349C330.447 61.5049 330.518 62.1719 330.62 62.8361C328.718 62.8361 326.816 62.8361 324.913 62.8361C324.806 62.2611 324.699 61.6871 324.599 61.1111C324.582 60.9789 324.53 60.8584 324.464 60.7467C323.48 61.9222 322.1 62.7391 320.603 63.0643C318.929 63.4336 317.11 63.3807 315.538 62.649C314.182 62.0299 313.076 60.8917 312.5 59.5194C311.797 57.8747 311.866 55.9578 312.514 54.3093C313.173 52.6695 314.574 51.4333 316.149 50.6918C318.576 49.5487 321.307 49.2784 323.96 49.2686C323.978 48.5976 323.846 47.8806 323.37 47.3771C322.814 46.7678 321.981 46.52 321.187 46.4201C318.913 46.1782 316.601 46.7855 314.622 47.8953C314.231 46.5357 313.843 45.1761 313.455 43.8165ZM320.159 53.8117C319.418 54.1212 318.697 54.6364 318.422 55.424C318.094 56.3574 318.207 57.5456 318.972 58.2401C319.65 58.8347 320.634 58.9317 321.488 58.7544C322.862 58.4732 324.079 57.2704 324.14 55.8324C324.188 54.9636 324.152 54.0918 324.163 53.222C322.813 53.2318 321.425 53.2984 320.159 53.8117Z" fill="#005DB5"/>
<path d="M358.082 42.4873C360.235 42.4863 362.387 42.4863 364.539 42.4873C365.026 44.9753 365.511 47.4633 365.997 49.9523C366.359 51.8507 366.741 53.747 367.033 55.6581C367.141 56.2909 367.224 56.9286 367.352 57.5574C367.555 57.1088 367.564 56.5994 367.685 56.1244C368.655 51.5402 369.932 47.0284 371.082 42.4873C372.749 42.4873 374.416 42.4863 376.083 42.4873C377.242 47.1891 378.529 51.8644 379.444 56.622C379.52 56.9344 379.53 57.2694 379.686 57.5584C379.954 56.0646 380.111 54.5512 380.409 53.0614C381.039 49.5145 381.882 46.0107 382.626 42.4863C384.694 42.4883 386.763 42.4853 388.831 42.4873C386.749 49.2706 384.666 56.0538 382.582 62.8361C380.595 62.8371 378.609 62.8371 376.623 62.8361C375.999 60.5019 375.373 58.1677 374.749 55.8334C374.337 54.1095 373.942 52.3816 373.65 50.6331C373.563 50.1874 373.502 49.7359 373.385 49.297C373.273 49.5644 373.25 49.8544 373.204 50.1375C372.913 52.025 372.5 53.892 371.982 55.7296C371.309 58.0991 370.632 60.4676 369.956 62.8371C367.97 62.8371 365.985 62.8361 363.999 62.8371C362.026 56.0538 360.053 49.2706 358.082 42.4873Z" fill="#005DB5"/>
<rect x="0.142578" y="114.016" width="222.857" height="95.7273" rx="8" fill="#C1E8FF"/>
<path d="M109.89 147.017C112.003 147.018 114.118 147.011 116.231 147.021C116.213 152.641 116.228 158.261 116.223 163.881C116.234 168.109 116.166 172.339 116.389 176.563C114.515 176.564 112.641 176.564 110.765 176.564C110.661 175.549 110.577 174.533 110.461 173.522C110.259 173.731 110.115 173.985 109.952 174.224C109.056 175.446 107.716 176.312 106.258 176.71C104.479 177.204 102.527 177.1 100.828 176.365C99.2904 175.709 97.9919 174.55 97.0935 173.148C95.9862 171.445 95.4458 169.421 95.3369 167.405C95.231 165.358 95.4733 163.26 96.2824 161.363C96.9993 159.648 98.2047 158.117 99.7817 157.114C101.34 156.103 103.236 155.651 105.085 155.783C106.493 155.875 107.944 156.264 109.039 157.19C109.365 157.449 109.597 157.796 109.88 158.097C109.903 154.404 109.883 150.71 109.89 147.017ZM105.031 160.718C104.221 160.922 103.498 161.416 102.987 162.072C102.138 163.208 101.781 164.638 101.74 166.039C101.692 167.575 101.968 169.197 102.905 170.458C103.974 171.943 106.16 172.404 107.771 171.569C108.743 171.079 109.439 170.126 109.686 169.074C109.925 168.246 109.889 167.378 109.89 166.526C109.884 165.575 109.925 164.619 109.79 163.674C109.572 162.689 108.992 161.771 108.148 161.206C107.247 160.591 106.075 160.452 105.031 160.718Z" fill="#005DB5"/>
<path d="M74.5973 157.543C76.6687 156.443 79.0127 155.942 81.3391 155.794C83.533 155.676 85.8496 155.846 87.8013 156.947C89.2656 157.756 90.3552 159.152 90.8858 160.728C91.4507 162.301 91.4958 163.992 91.4723 165.646C91.484 168.618 91.4272 171.592 91.5527 174.561C91.59 175.231 91.6606 175.899 91.7626 176.563C89.8609 176.563 87.9582 176.563 86.0555 176.563C85.9486 175.988 85.8417 175.414 85.7417 174.838C85.725 174.705 85.673 174.585 85.6063 174.473C84.6226 175.649 83.2427 176.466 81.7461 176.791C80.0719 177.16 78.2526 177.107 76.6804 176.376C75.325 175.756 74.2187 174.618 73.643 173.246C72.9398 171.601 73.0084 169.684 73.6567 168.036C74.3158 166.396 75.7163 165.16 77.2914 164.418C79.7188 163.275 82.4493 163.005 85.1022 162.995C85.1208 162.324 84.9884 161.607 84.5128 161.104C83.9567 160.494 83.124 160.247 82.3296 160.147C80.0552 159.905 77.7436 160.512 75.7644 161.622C75.374 160.262 74.9857 158.903 74.5973 157.543ZM81.3018 167.538C80.5603 167.848 79.8395 168.363 79.5648 169.151C79.2363 170.084 79.3501 171.272 80.1151 171.967C80.7928 172.561 81.7765 172.658 82.6307 172.481C84.0047 172.2 85.2219 170.997 85.2827 169.559C85.3307 168.69 85.2944 167.818 85.3052 166.949C83.9557 166.958 82.5679 167.025 81.3018 167.538Z" fill="#005DB5"/>
<path d="M119.225 156.214C121.377 156.213 123.529 156.213 125.682 156.214C126.168 158.702 126.654 161.19 127.139 163.679C127.501 165.577 127.884 167.474 128.176 169.385C128.284 170.017 128.366 170.655 128.495 171.284C128.698 170.835 128.707 170.326 128.827 169.851C129.797 165.267 131.074 160.755 132.225 156.214C133.892 156.214 135.558 156.213 137.226 156.214C138.385 160.916 139.672 165.591 140.587 170.349C140.662 170.661 140.673 170.996 140.829 171.285C141.097 169.791 141.254 168.278 141.552 166.788C142.181 163.241 143.025 159.737 143.768 156.213C145.837 156.215 147.905 156.212 149.974 156.214C147.891 162.997 145.808 169.78 143.724 176.563C141.738 176.564 139.752 176.564 137.766 176.563C137.141 174.228 136.515 171.894 135.892 169.56C135.48 167.836 135.085 166.108 134.792 164.36C134.706 163.914 134.644 163.462 134.527 163.024C134.416 163.291 134.392 163.581 134.347 163.864C134.056 165.752 133.643 167.619 133.125 169.456C132.451 171.826 131.774 174.194 131.099 176.564C129.113 176.564 127.128 176.563 125.142 176.564C123.168 169.78 121.196 162.997 119.225 156.214Z" fill="#005DB5"/>
<rect x="239" y="114.016" width="222.857" height="95.7273" rx="8" fill="#005DB5"/>
<path d="M348.747 147.017C350.86 147.018 352.975 147.011 355.089 147.021C355.071 152.641 355.086 158.261 355.081 163.881C355.091 168.109 355.024 172.339 355.246 176.563C353.372 176.564 351.498 176.564 349.623 176.564C349.519 175.549 349.434 174.533 349.319 173.522C349.117 173.731 348.973 173.985 348.81 174.224C347.913 175.446 346.574 176.312 345.115 176.71C343.336 177.204 341.384 177.1 339.686 176.365C338.148 175.709 336.849 174.55 335.951 173.148C334.844 171.445 334.303 169.421 334.194 167.405C334.088 165.358 334.331 163.26 335.14 161.363C335.857 159.648 337.062 158.117 338.639 157.114C340.198 156.103 342.093 155.651 343.942 155.783C345.351 155.875 346.801 156.264 347.897 157.19C348.222 157.449 348.455 157.796 348.737 158.097C348.761 154.404 348.74 150.71 348.747 147.017ZM343.888 160.718C343.078 160.922 342.355 161.416 341.844 162.072C340.995 163.208 340.638 164.638 340.598 166.039C340.55 167.575 340.825 169.197 341.762 170.458C342.831 171.943 345.017 172.404 346.628 171.569C347.6 171.079 348.297 170.126 348.544 169.074C348.782 168.246 348.746 167.378 348.747 166.526C348.741 165.575 348.782 164.619 348.648 163.674C348.429 162.689 347.85 161.771 347.005 161.206C346.105 160.591 344.933 160.452 343.888 160.718Z" fill="white"/>
<path d="M313.455 157.543C315.526 156.443 317.87 155.942 320.196 155.794C322.39 155.676 324.707 155.846 326.659 156.947C328.123 157.756 329.213 159.152 329.743 160.728C330.308 162.301 330.353 163.992 330.33 165.646C330.341 168.618 330.285 171.592 330.41 174.561C330.447 175.231 330.518 175.899 330.62 176.563C328.718 176.563 326.816 176.563 324.913 176.563C324.806 175.988 324.699 175.414 324.599 174.838C324.582 174.705 324.53 174.585 324.464 174.473C323.48 175.649 322.1 176.466 320.603 176.791C318.929 177.16 317.11 177.107 315.538 176.376C314.182 175.756 313.076 174.618 312.5 173.246C311.797 171.601 311.866 169.684 312.514 168.036C313.173 166.396 314.574 165.16 316.149 164.418C318.576 163.275 321.307 163.005 323.96 162.995C323.978 162.324 323.846 161.607 323.37 161.104C322.814 160.494 321.981 160.247 321.187 160.147C318.913 159.905 316.601 160.512 314.622 161.622C314.231 160.262 313.843 158.903 313.455 157.543ZM320.159 167.538C319.418 167.848 318.697 168.363 318.422 169.151C318.094 170.084 318.207 171.272 318.972 171.967C319.65 172.561 320.634 172.658 321.488 172.481C322.862 172.2 324.079 170.997 324.14 169.559C324.188 168.69 324.152 167.818 324.163 166.949C322.813 166.958 321.425 167.025 320.159 167.538Z" fill="white"/>
<path d="M358.082 156.214C360.235 156.213 362.387 156.213 364.539 156.214C365.026 158.702 365.511 161.19 365.997 163.679C366.359 165.577 366.741 167.474 367.033 169.385C367.141 170.017 367.224 170.655 367.352 171.284C367.555 170.835 367.564 170.326 367.685 169.851C368.655 165.267 369.932 160.755 371.082 156.214C372.749 156.214 374.416 156.213 376.083 156.214C377.242 160.916 378.529 165.591 379.444 170.349C379.52 170.661 379.53 170.996 379.686 171.285C379.954 169.791 380.111 168.278 380.409 166.788C381.039 163.241 381.882 159.737 382.626 156.213C384.694 156.215 386.763 156.212 388.831 156.214C386.749 162.997 384.666 169.78 382.582 176.563C380.595 176.564 378.609 176.564 376.623 176.563C375.999 174.228 375.373 171.894 374.749 169.56C374.337 167.836 373.942 166.108 373.65 164.36C373.563 163.914 373.502 163.462 373.385 163.024C373.273 163.291 373.25 163.581 373.204 163.864C372.913 165.752 372.5 167.619 371.982 169.456C371.309 171.826 370.632 174.194 369.956 176.564C367.97 176.564 365.985 176.563 363.999 176.564C362.026 169.78 360.053 162.997 358.082 156.214Z" fill="white"/>
<rect x="0.142578" y="227.744" width="222.857" height="95.7273" rx="8" fill="#FFB406"/>
<path d="M109.747 260.746C111.86 260.747 113.975 260.739 116.089 260.75C116.071 266.369 116.086 271.989 116.081 277.61C116.091 281.837 116.024 286.068 116.246 290.292C114.372 290.293 112.498 290.293 110.623 290.293C110.519 289.278 110.434 288.262 110.319 287.25C110.117 287.46 109.973 287.713 109.81 287.952C108.913 289.175 107.574 290.041 106.115 290.439C104.336 290.932 102.384 290.828 100.686 290.094C99.1478 289.437 97.8493 288.279 96.9509 286.877C95.8436 285.174 95.3032 283.15 95.1943 281.134C95.0884 279.087 95.3307 276.989 96.1398 275.091C96.8567 273.376 98.0621 271.845 99.6392 270.842C101.198 269.831 103.093 269.38 104.942 269.512C106.351 269.604 107.801 269.993 108.897 270.918C109.222 271.177 109.455 271.525 109.737 271.825C109.761 268.133 109.74 264.439 109.747 260.746ZM104.888 274.447C104.078 274.65 103.355 275.144 102.844 275.8C101.995 276.937 101.638 278.367 101.598 279.768C101.55 281.303 101.825 282.926 102.762 284.186C103.831 285.671 106.017 286.132 107.628 285.298C108.6 284.807 109.297 283.854 109.544 282.802C109.782 281.974 109.746 281.107 109.747 280.254C109.741 279.303 109.782 278.347 109.648 277.403C109.429 276.418 108.85 275.5 108.005 274.935C107.105 274.319 105.933 274.18 104.888 274.447Z" fill="white"/>
<path d="M74.4547 271.272C76.5261 270.172 78.8701 269.67 81.1965 269.522C83.3904 269.405 85.707 269.574 87.6587 270.675C89.123 271.484 90.2126 272.881 90.7432 274.456C91.3081 276.029 91.3532 277.721 91.3297 279.374C91.3415 282.346 91.2846 285.32 91.4101 288.29C91.4474 288.96 91.518 289.627 91.62 290.291C89.7183 290.291 87.8156 290.291 85.9129 290.291C85.806 289.716 85.6991 289.142 85.5991 288.566C85.5824 288.434 85.5304 288.313 85.4637 288.202C84.48 289.377 83.1001 290.194 81.6035 290.519C79.9293 290.889 78.11 290.836 76.5378 290.104C75.1824 289.485 74.0761 288.347 73.5004 286.974C72.7972 285.33 72.8659 283.413 73.5141 281.764C74.1732 280.125 75.5738 278.888 77.1489 278.147C79.5763 277.004 82.3067 276.733 84.9596 276.724C84.9783 276.053 84.8459 275.336 84.3702 274.832C83.8141 274.223 82.9814 273.975 82.187 273.875C79.9127 273.633 77.601 274.241 75.6218 275.35C75.2315 273.991 74.8431 272.631 74.4547 271.272ZM81.1592 281.267C80.4177 281.576 79.6969 282.091 79.4223 282.879C79.0937 283.813 79.2075 285.001 79.9725 285.695C80.6502 286.29 81.6339 286.387 82.4881 286.209C83.8622 285.928 85.0793 284.725 85.1401 283.287C85.1882 282.419 85.1519 281.547 85.1627 280.677C83.8131 280.687 82.4254 280.753 81.1592 281.267Z" fill="white"/>
<path d="M119.082 269.942C121.235 269.941 123.387 269.941 125.539 269.942C126.026 272.43 126.511 274.918 126.997 277.407C127.359 279.306 127.741 281.202 128.033 283.113C128.141 283.746 128.224 284.384 128.352 285.012C128.555 284.564 128.564 284.055 128.685 283.579C129.655 278.995 130.932 274.484 132.082 269.942C133.749 269.942 135.416 269.941 137.083 269.942C138.242 274.644 139.529 279.319 140.444 284.077C140.52 284.39 140.53 284.725 140.686 285.013C140.954 283.52 141.111 282.006 141.409 280.516C142.039 276.97 142.882 273.466 143.626 269.941C145.694 269.943 147.763 269.94 149.831 269.942C147.749 276.726 145.666 283.509 143.582 290.291C141.595 290.292 139.609 290.292 137.623 290.291C136.999 287.957 136.373 285.623 135.749 283.289C135.337 281.565 134.942 279.837 134.65 278.088C134.563 277.642 134.502 277.191 134.385 276.752C134.273 277.02 134.25 277.309 134.204 277.593C133.913 279.48 133.5 281.347 132.982 283.185C132.309 285.554 131.632 287.923 130.956 290.292C128.97 290.292 126.985 290.291 124.999 290.292C123.026 283.509 121.053 276.726 119.082 269.942Z" fill="white"/>
<rect x="239" y="227.744" width="222.857" height="95.7273" rx="8" fill="#61B548"/>
<path d="M348.747 260.945C350.86 260.946 352.975 260.938 355.089 260.949C355.071 266.569 355.086 272.188 355.081 277.809C355.091 282.036 355.024 286.267 355.246 290.491C353.372 290.492 351.498 290.492 349.623 290.492C349.519 289.477 349.434 288.461 349.319 287.449C349.117 287.659 348.973 287.913 348.81 288.152C347.913 289.374 346.574 290.24 345.115 290.638C343.336 291.131 341.384 291.028 339.686 290.293C338.148 289.637 336.849 288.478 335.951 287.076C334.844 285.373 334.303 283.349 334.194 281.333C334.088 279.286 334.331 277.188 335.14 275.29C335.857 273.575 337.062 272.044 338.639 271.041C340.198 270.03 342.093 269.579 343.942 269.711C345.351 269.803 346.801 270.192 347.897 271.118C348.222 271.376 348.455 271.724 348.737 272.025C348.761 268.332 348.74 264.638 348.747 260.945ZM343.888 274.646C343.078 274.85 342.355 275.343 341.844 276C340.995 277.136 340.638 278.566 340.598 279.967C340.55 281.503 340.825 283.125 341.762 284.385C342.831 285.87 345.017 286.332 346.628 285.497C347.6 285.006 348.297 284.053 348.544 283.001C348.782 282.174 348.746 281.306 348.747 280.454C348.741 279.502 348.782 278.546 348.648 277.602C348.429 276.617 347.85 275.699 347.005 275.134C346.105 274.519 344.933 274.379 343.888 274.646Z" fill="white"/>
<path d="M313.455 271.471C315.526 270.371 317.87 269.869 320.196 269.721C322.39 269.604 324.707 269.773 326.659 270.874C328.123 271.683 329.213 273.08 329.743 274.655C330.308 276.228 330.353 277.92 330.33 279.573C330.341 282.545 330.285 285.519 330.41 288.489C330.447 289.159 330.518 289.826 330.62 290.49C328.718 290.49 326.816 290.49 324.913 290.49C324.806 289.915 324.699 289.341 324.599 288.765C324.582 288.633 324.53 288.513 324.464 288.401C323.48 289.576 322.1 290.393 320.603 290.719C318.929 291.088 317.11 291.035 315.538 290.303C314.182 289.684 313.076 288.546 312.5 287.174C311.797 285.529 311.866 283.612 312.514 281.964C313.173 280.324 314.574 279.088 316.149 278.346C318.576 277.203 321.307 276.933 323.96 276.923C323.978 276.252 323.846 275.535 323.37 275.031C322.814 274.422 321.981 274.174 321.187 274.074C318.913 273.832 316.601 274.44 314.622 275.55C314.231 274.19 313.843 272.83 313.455 271.471ZM320.159 281.466C319.418 281.775 318.697 282.291 318.422 283.078C318.094 284.012 318.207 285.2 318.972 285.894C319.65 286.489 320.634 286.586 321.488 286.409C322.862 286.128 324.079 284.925 324.14 283.487C324.188 282.618 324.152 281.746 324.163 280.876C322.813 280.886 321.425 280.953 320.159 281.466Z" fill="white"/>
<path d="M358.082 270.142C360.235 270.141 362.387 270.141 364.539 270.142C365.026 272.63 365.511 275.118 365.997 277.607C366.359 279.505 366.741 281.401 367.033 283.312C367.141 283.945 367.224 284.583 367.352 285.212C367.555 284.763 367.564 284.254 367.685 283.779C368.655 279.194 369.932 274.683 371.082 270.142C372.749 270.142 374.416 270.141 376.083 270.142C377.242 274.843 378.529 279.519 379.444 284.276C379.52 284.589 379.53 284.924 379.686 285.213C379.954 283.719 380.111 282.206 380.409 280.716C381.039 277.169 381.882 273.665 382.626 270.141C384.694 270.143 386.763 270.14 388.831 270.142C386.749 276.925 384.666 283.708 382.582 290.49C380.595 290.491 378.609 290.491 376.623 290.49C375.999 288.156 375.373 285.822 374.749 283.488C374.337 281.764 373.942 280.036 373.65 278.287C373.563 277.842 373.502 277.39 373.385 276.951C373.273 277.219 373.25 277.509 373.204 277.792C372.913 279.679 372.5 281.546 371.982 283.384C371.309 285.753 370.632 288.122 369.956 290.491C367.97 290.491 365.985 290.49 363.999 290.491C362.026 283.708 360.053 276.925 358.082 270.142Z" fill="white"/>
</svg>
