<svg width="48" height="48" viewBox="0 0 48 48" fill="none" xmlns="http://www.w3.org/2000/svg">
<path d="M0 8C0 3.58172 3.58172 0 8 0H40C44.4183 0 48 3.58172 48 8V40C48 44.4183 44.4183 48 40 48H8C3.58172 48 0 44.4183 0 40V8Z" fill="#C1E8FF" fill-opacity="0.6"/>
<path d="M20.571 17.7143C20.571 15.8207 22.106 14.2857 23.9996 14.2857C25.8932 14.2857 27.4282 15.8207 27.4282 17.7143H20.571ZM18.2853 17.7143H14.8567C14.2255 17.7143 13.7139 18.226 13.7139 18.8571V34.8571C13.7139 35.4883 14.2255 36 14.8567 36H33.1424C33.7736 36 34.2853 35.4883 34.2853 34.8571V18.8571C34.2853 18.226 33.7736 17.7143 33.1424 17.7143H29.7139C29.7139 14.5584 27.1555 12 23.9996 12C20.8437 12 18.2853 14.5584 18.2853 17.7143ZM20.571 22.2857C20.571 24.1793 22.106 25.7143 23.9996 25.7143C25.8932 25.7143 27.4282 24.1793 27.4282 22.2857H29.7139C29.7139 25.4416 27.1555 28 23.9996 28C20.8437 28 18.2853 25.4416 18.2853 22.2857H20.571Z" fill="#005DB5"/>
</svg>
