<svg width="48" height="48" viewBox="0 0 48 48" fill="none" xmlns="http://www.w3.org/2000/svg">
<path d="M0 8C0 3.58172 3.58172 0 8 0H40C44.4183 0 48 3.58172 48 8V40C48 44.4183 44.4183 48 40 48H8C3.58172 48 0 44.4183 0 40V8Z" fill="#C1E8FF" fill-opacity="0.6"/>
<path d="M24.5709 12L31.4283 23.4286H17.714L24.5709 12ZM25.714 26.2857H34.8569V35.4286H25.714V26.2857ZM18.5711 36C21.5693 36 23.9997 33.5696 23.9997 30.5714C23.9997 27.5733 21.5693 25.1429 18.5711 25.1429C15.573 25.1429 13.1426 27.5733 13.1426 30.5714C13.1426 33.5696 15.573 36 18.5711 36Z" fill="#005DB5"/>
</svg>
