<svg width="48" height="48" viewBox="0 0 48 48" fill="none" xmlns="http://www.w3.org/2000/svg">
<path d="M0 8C0 3.58172 3.58172 0 8 0H40C44.4183 0 48 3.58172 48 8V40C48 44.4183 44.4183 48 40 48H8C3.58172 48 0 44.4183 0 40V8Z" fill="#C1E8FF" fill-opacity="0.6"/>
<path d="M33.6 15.5992H14.4V32.3992L25.5508 21.247C26.0194 20.7784 26.7791 20.7783 27.2478 21.2469L33.6 27.6117V15.5992ZM12 14.3913C12 13.7329 12.5464 13.1992 13.1902 13.1992H34.8098C35.4672 13.1992 36 13.7332 36 14.3913V33.6071C36 34.2655 35.4536 34.7992 34.8098 34.7992H13.1902C12.5329 34.7992 12 34.2653 12 33.6071V14.3913ZM19.2 22.7992C17.8745 22.7992 16.8 21.7247 16.8 20.3992C16.8 19.0737 17.8745 17.9992 19.2 17.9992C20.5255 17.9992 21.6 19.0737 21.6 20.3992C21.6 21.7247 20.5255 22.7992 19.2 22.7992Z" fill="#005DB5"/>
</svg>
