<svg width="48" height="48" viewBox="0 0 48 48" fill="none" xmlns="http://www.w3.org/2000/svg">
<path d="M0 8C0 3.58172 3.58172 0 8 0H40C44.4183 0 48 3.58172 48 8V40C48 44.4183 44.4183 48 40 48H8C3.58172 48 0 44.4183 0 40V8Z" fill="#C1E8FF" fill-opacity="0.6"/>
<path d="M30.6667 18.6667H17.3333V21.3333H22.6667V30.6667H25.3333V21.3333H30.6667V18.6667ZM13.3333 12H34.6667C35.4031 12 36 12.597 36 13.3333V34.6667C36 35.4031 35.4031 36 34.6667 36H13.3333C12.597 36 12 35.4031 12 34.6667V13.3333C12 12.597 12.597 12 13.3333 12Z" fill="#005DB5"/>
</svg>
