<svg width="48" height="48" viewBox="0 0 48 48" fill="none" xmlns="http://www.w3.org/2000/svg">
<path d="M0 8C0 3.58172 3.58172 0 8 0H40C44.4183 0 48 3.58172 48 8V40C48 44.4183 44.4183 48 40 48H8C3.58172 48 0 44.4183 0 40V8Z" fill="#C1E8FF" fill-opacity="0.6"/>
<path d="M24 12C30.6266 12 36 16.7733 36 22.6667C36 26.3467 33.0133 29.3333 29.3333 29.3333H26.9734C25.8667 29.3333 24.9733 30.2267 24.9733 31.3333C24.9733 31.84 25.1734 32.3066 25.48 32.6533C25.8 33.0133 26 33.48 26 34C26 35.1067 25.08 36 24 36C17.3733 36 12 30.6266 12 24C12 17.3733 17.3733 12 24 12ZM18.6 24C19.5941 24 20.4 23.1941 20.4 22.2C20.4 21.2059 19.5941 20.4 18.6 20.4C17.6059 20.4 16.8 21.2059 16.8 22.2C16.8 23.1941 17.6059 24 18.6 24ZM29.4 24C30.3941 24 31.2 23.1941 31.2 22.2C31.2 21.2059 30.3941 20.4 29.4 20.4C28.4059 20.4 27.6 21.2059 27.6 22.2C27.6 23.1941 28.4059 24 29.4 24ZM24 20.4C24.9941 20.4 25.8 19.5941 25.8 18.6C25.8 17.6059 24.9941 16.8 24 16.8C23.0059 16.8 22.2 17.6059 22.2 18.6C22.2 19.5941 23.0059 20.4 24 20.4Z" fill="#005DB5"/>
</svg>
