<svg width="48" height="48" viewBox="0 0 48 48" fill="none" xmlns="http://www.w3.org/2000/svg">
<path d="M0 8C0 3.58172 3.58172 0 8 0H40C44.4183 0 48 3.58172 48 8V40C48 44.4183 44.4183 48 40 48H8C3.58172 48 0 44.4183 0 40V8Z" fill="#C1E8FF" fill-opacity="0.6"/>
<path d="M34.1538 21.0015V13.5394C34.1538 12.8596 33.6028 12.3086 32.9231 12.3086H31.6923C29.2571 14.7438 24.6802 16.1083 21.8462 16.7551V30.0159C24.6802 30.6627 29.2571 32.0272 31.6923 34.4624H32.9231C33.6028 34.4624 34.1538 33.9114 34.1538 33.2317V25.7695C35.2155 25.4963 36 24.5325 36 23.3855C36 22.2386 35.2155 21.2747 34.1538 21.0015ZM14.4615 17.2317C13.1021 17.2317 12 18.3337 12 19.6932V27.0778C12 28.4373 13.1021 29.5394 14.4615 29.5394H15.6923L16.9231 35.6932H19.3846V17.2317H14.4615Z" fill="#005DB5"/>
</svg>
