<svg width="48" height="48" viewBox="0 0 48 48" fill="none" xmlns="http://www.w3.org/2000/svg">
<path d="M0 8C0 3.58172 3.58172 0 8 0H40C44.4183 0 48 3.58172 48 8V40C48 44.4183 44.4183 48 40 48H8C3.58172 48 0 44.4183 0 40V8Z" fill="#C1E8FF" fill-opacity="0.6"/>
<path d="M18 30H30V36H18V30ZM32.4 33.6V27.6H15.6V33.6H13.2C12.5373 33.6 12 33.0628 12 32.4V20.4C12 19.7373 12.5373 19.2 13.2 19.2H34.8C35.4628 19.2 36 19.7373 36 20.4V32.4C36 33.0628 35.4628 33.6 34.8 33.6H32.4ZM15.6 21.6V24H19.2V21.6H15.6ZM18 12H30C30.6628 12 31.2 12.5373 31.2 13.2V16.8H16.8V13.2C16.8 12.5373 17.3373 12 18 12Z" fill="#005DB5"/>
</svg>
