<svg width="600" height="406" viewBox="0 0 600 406" fill="none" xmlns="http://www.w3.org/2000/svg">
<path d="M523.695 116.146C523.695 116.146 514.819 135.503 508.845 143.681C502.872 151.859 497.179 159.677 492.417 182.372C487.655 205.067 488.467 207.347 487.163 213.209C485.858 219.071 477.37 242.821 477.32 247.175C477.27 251.53 460.163 276.322 455.78 287.927C451.397 299.532 443.638 316.105 444.073 324.543L446.023 324.047C446.023 324.047 447.611 304.371 461.135 284.486C474.658 264.6 472.725 260.846 488.084 250.619C503.443 240.393 513.359 212.193 513.359 212.193C513.359 212.193 528.995 181.544 528.257 165.608C527.519 149.672 531.676 135.305 523.695 116.146Z" fill="#85D1FF"/>
<path d="M502.908 86.3711C502.908 86.3711 502.391 99.0876 498.296 106.643C494.201 114.199 490.677 118.785 489.932 126.958C489.187 135.131 486.616 156.198 475.199 166.484C463.783 176.77 462.323 207.593 453.631 216.916C444.938 226.239 443.805 232.943 445.41 248.934C447.014 264.925 452.467 287.093 439.86 316.013L437.003 308.817C437.003 308.817 446.022 285.02 443.838 271.085C441.655 257.15 434.058 236.096 436.838 226.01C439.619 215.924 429.277 213.939 435.505 198.666C441.734 183.393 439.174 178.087 447.648 164.881C447.648 164.881 448.517 164.263 450.743 153.09C452.969 141.916 470.94 121.439 479.221 114.454C487.501 107.468 499.446 96.2519 502.908 86.3711Z" fill="#55BDFC"/>
<path d="M469.183 149.332C469.183 149.332 459.267 166.337 459.126 177.281C458.986 188.226 460.169 197.131 455.152 212.118C450.136 227.105 460.093 236.583 457.221 244.859C454.35 253.134 454.126 262.932 454.217 270.361C454.307 277.79 442.86 302.381 441.122 314.831C439.384 327.28 441.598 327.323 441.598 327.323C441.598 327.323 443.503 310.886 446.122 305.451C448.741 300.015 456.762 281.274 458.633 274.024C460.505 266.774 465.574 262.121 469.947 249.843C474.321 237.566 480.54 227.222 480.066 209.798C479.592 192.373 486.602 173.985 469.183 149.332Z" fill="#85D1FF"/>
<path d="M448.19 315.914C448.19 315.914 452.813 294.332 472.31 292.176C491.808 290.02 503.262 293.884 517.038 278.117C530.814 262.35 538.813 237.335 543.213 233.02C543.213 233.02 536.292 229.443 524.788 240.228C513.283 251.012 505.198 259.178 498.536 265.451C491.874 271.723 486.467 267.635 479.434 271.771C473.539 275.236 465.918 285.255 462.561 290.502C461.475 292.209 460.175 293.769 458.692 295.143C457.342 296.393 455.732 297.924 454.701 299.05C452.637 301.304 446.683 315.983 446.683 315.983L448.19 315.914Z" fill="#85D1FF"/>
<path d="M441.317 312.108C441.317 312.108 448.19 285.714 443.586 272.797C438.981 259.88 424.574 250.324 425.153 242.21C425.731 234.096 434.983 212.16 427.441 195.842C427.441 195.842 424.584 210.404 421.748 213.643C418.913 216.882 399.518 229.947 402.956 247.202C406.394 264.457 425.26 268.487 429.905 273.567C434.55 278.647 440.824 278.64 440.857 282.017C440.89 285.394 442.121 297.674 440.038 309.792L441.317 312.108Z" fill="#1074D2"/>
<path d="M448.831 294.444L458.486 266.588C458.486 266.588 464.157 244.181 467.442 225.498C470.728 206.814 469.183 149.332 469.183 149.332C469.183 149.332 459.266 166.337 459.126 177.281C458.986 188.226 460.169 197.131 455.152 212.118C450.136 227.105 460.093 236.583 457.221 244.859C454.35 253.134 454.126 262.932 454.217 270.361C454.307 277.79 442.86 302.381 441.122 314.831C440.169 321.652 440.407 324.745 440.815 326.15C439.262 315.26 448.831 294.444 448.831 294.444Z" fill="#55BDFC"/>
<path d="M496.376 277.849C487.765 279.571 480.065 278.985 469.841 286.607C459.618 294.229 453.606 302.369 453.606 302.369C453.606 302.369 449.011 310.595 447.111 314.933C446.837 315.596 446.678 315.992 446.678 315.992L448.185 315.913C448.185 315.913 452.808 294.332 472.306 292.176C491.803 290.02 503.257 293.883 517.033 278.117C530.809 262.35 538.809 237.334 543.208 233.02C543.208 233.02 528.559 244.436 519.504 254.541C510.45 264.646 504.995 276.125 496.376 277.849Z" fill="#85D1FF"/>
<path d="M421.748 213.642C418.92 216.883 399.518 229.945 402.956 247.2C406.394 264.455 425.26 268.486 429.905 273.566C434.55 278.646 440.824 278.639 440.857 282.016C440.89 285.393 442.121 297.673 440.038 309.791L440.595 310.802C441.612 306.073 443.024 298.877 443.485 293.392C444.235 284.513 442.8 280.835 439.95 273.642C437.1 266.449 419.393 251.794 414.951 244.09C410.508 236.387 423.507 223.508 426.379 217.291C429.25 211.073 427.419 195.826 427.419 195.826C427.419 195.826 424.574 210.403 421.748 213.642Z" fill="#005DB5"/>
<path d="M467.777 299.354L470.808 292.016C473.161 286.619 479.177 284.043 484.248 286.261C497.031 291.849 502.581 307.403 496.66 321.005L492.327 330.948C490.422 335.303 491.089 340.096 493.651 343.473C495.974 346.543 496.353 350.809 494.741 354.509L492.458 359.755C491.258 362.514 489.475 364.98 487.234 366.984C484.993 368.987 482.345 370.481 479.472 371.363C477.73 371.908 476.126 372.824 474.772 374.05C473.417 375.276 472.345 376.782 471.627 378.463L468.394 385.885C464.823 394.089 455.668 398.008 447.957 394.638L443.557 392.713C435.845 389.341 432.493 379.956 436.069 371.749C441.852 361.938 441.39 354.616 439.34 349.648C437.834 345.962 437.082 342.01 437.131 338.027C437.18 334.044 438.027 330.112 439.623 326.464L440.081 325.415C441.75 321.571 444.219 318.129 447.321 315.316C450.424 312.504 454.089 310.386 458.073 309.104C461.559 307.99 465.199 305.269 467.777 299.354Z" fill="#55BDFC"/>
<path d="M413.203 402.988C419.393 394.932 453.416 351.779 475.582 344.586C500.063 336.649 476.989 368.178 476.989 368.178C476.989 368.178 520.414 320.612 536.352 324.9C550.959 328.831 536.352 358.314 536.352 358.314C536.352 358.314 552.804 341.986 572.756 341.986C592.172 341.986 559.185 399.888 557.409 402.988H413.203Z" fill="#C1E8FF"/>
<path d="M544.071 309.623C526.18 337.627 513.29 368.536 505.976 400.966L504.76 400.64C512.146 368.495 524.981 337.857 542.706 310.059C546.823 303.62 551.278 295.971 558.977 293.458C559.125 293.41 559.182 293.637 559.039 293.696C551.999 296.353 547.923 303.599 544.071 309.623Z" fill="#55BDFC"/>
<path d="M510.253 402.122C530.761 374.171 555.213 349.353 582.844 328.444C583.132 328.227 583.518 328.728 583.23 328.95C556 349.907 531.929 374.687 511.76 402.525L510.253 402.122Z" fill="#55BDFC"/>
<path d="M545.692 292.41C546.149 293.083 547.897 294.838 548.411 297.142C549.102 299.329 548.556 302.067 548.497 301.971C548.366 302.026 550.521 300.202 551.194 297.299C552.066 294.513 551.456 290.652 550.371 289.374C548.499 286.481 545.228 286.188 544.592 287.59C543.918 288.988 544.773 290.879 545.692 292.41Z" fill="#55BDFC"/>
<path d="M549.947 317.185C549.285 316.708 547.566 314.928 545.275 314.368C543.106 313.636 540.364 314.129 540.456 314.187C540.402 314.318 542.264 312.195 545.175 311.58C547.97 310.762 551.813 311.449 553.068 312.56C555.925 314.492 556.146 317.774 554.735 318.382C553.32 319.038 551.447 318.136 549.947 317.185Z" fill="#55BDFC"/>
<path d="M543.53 328.044C542.868 327.567 541.149 325.788 538.861 325.23C536.692 324.495 533.947 324.991 534.042 325.046C533.985 325.177 535.85 323.055 538.759 322.439C541.557 321.621 545.399 322.308 546.654 323.419C549.511 325.351 549.732 328.633 548.321 329.241C546.916 329.89 545.04 328.995 543.53 328.044Z" fill="#55BDFC"/>
<path d="M566.375 353.234C565.713 352.757 563.994 350.975 561.704 350.417C559.535 349.683 556.792 350.179 556.887 350.234C556.83 350.365 558.692 348.242 561.604 347.627C564.399 346.809 568.242 347.496 569.496 348.607C572.353 350.539 572.575 353.82 571.163 354.429C569.763 355.077 567.889 354.183 566.375 353.234Z" fill="#55BDFC"/>
<path d="M578.053 342.93C577.391 342.453 575.672 340.673 573.382 340.113C571.213 339.378 568.47 339.874 568.563 339.932C568.506 340.063 570.37 337.94 573.282 337.323C576.077 336.507 579.92 337.194 581.174 338.303C584.031 340.235 584.253 343.516 582.841 344.127C581.436 344.773 579.563 343.881 578.053 342.93Z" fill="#55BDFC"/>
<path d="M536.731 304.697C537.288 305.289 539.29 306.746 540.159 308.943C541.185 310.991 541.078 313.782 541.004 313.696C540.883 313.772 542.724 311.628 542.933 308.656C543.354 305.768 542.145 302.052 540.874 300.96C538.569 298.399 535.293 298.628 534.886 300.111C534.44 301.595 535.583 303.331 536.731 304.697Z" fill="#55BDFC"/>
<path d="M527.309 317.01C528.102 317.432 530.881 318.202 532.266 320.272C533.842 322.118 534.042 325.281 533.933 325.214C533.785 325.35 535.907 322.166 535.814 318.758C536.011 315.355 533.992 311.727 532.214 311.057C528.921 309.189 524.707 310.854 524.357 312.688C523.969 314.534 525.662 315.979 527.309 317.01Z" fill="#55BDFC"/>
<path d="M517.398 335.662C518.25 335.944 521.107 336.23 522.829 338.047C524.693 339.602 525.421 342.683 525.307 342.638C525.183 342.796 526.736 339.299 526.078 335.96C525.7 332.571 523.102 329.335 521.236 328.972C517.676 327.689 513.803 330.038 513.769 331.903C513.686 333.783 515.595 334.925 517.398 335.662Z" fill="#1074D2"/>
<path d="M546.733 348.658C547.354 349.046 549.564 349.824 550.578 351.594C551.754 353.184 551.738 355.767 551.657 355.708C551.528 355.81 553.435 353.342 553.561 350.566C553.916 347.806 552.48 344.742 551.071 344.093C548.497 342.388 544.976 343.501 544.59 344.973C544.154 346.452 545.447 347.725 546.733 348.658Z" fill="#55BDFC"/>
<path d="M562.006 296.777C561.634 296.47 560.696 295.346 559.365 294.905C558.113 294.376 556.47 294.547 556.523 294.588C556.485 294.662 557.677 293.489 559.427 293.252C561.118 292.89 563.361 293.465 564.053 294.178C565.656 295.444 565.646 297.395 564.784 297.693C563.922 297.991 562.856 297.405 562.006 296.777Z" fill="#55BDFC"/>
<path d="M558.449 288.848C558.465 289.325 558.787 290.756 558.315 292.085C557.97 293.401 556.832 294.601 556.832 294.536C556.749 294.522 558.406 294.298 559.661 293.046C560.98 291.927 561.894 289.795 561.753 288.81C561.73 286.766 560.182 285.581 559.42 286.084C558.658 286.587 558.47 287.794 558.449 288.848Z" fill="#55BDFC"/>
<path d="M586.46 332.436C586.089 332.131 585.15 331.005 583.82 330.567C582.567 330.037 580.924 330.209 580.977 330.247C580.936 330.323 582.132 329.15 583.881 328.911C585.572 328.551 587.815 329.126 588.508 329.837C590.11 331.106 590.1 333.056 589.238 333.355C588.377 333.653 587.31 333.066 586.46 332.436Z" fill="#55BDFC"/>
<path d="M582.168 324.443C582.225 324.92 582.663 326.327 582.301 327.679C582.063 329.019 581.027 330.303 581.023 330.243C580.939 330.243 582.573 329.869 583.723 328.528C584.942 327.302 585.68 325.106 585.461 324.135C585.27 322.098 583.63 321.035 582.911 321.607C582.192 322.179 582.106 323.386 582.168 324.443Z" fill="#55BDFC"/>
<path d="M579.182 376.105C561.066 378.094 544.183 386.105 527.948 393.916C516.996 399.184 517.548 400.685 515.329 401.469C515.246 401.496 515.157 401.498 515.073 401.475C514.989 401.452 514.913 401.405 514.855 401.34C514.797 401.275 514.759 401.194 514.746 401.108C514.733 401.022 514.745 400.933 514.781 400.854C515.639 399.151 517.891 397.992 519.455 397.019C521.286 395.886 523.175 394.851 525.114 393.919C529.25 391.908 533.49 390.103 537.705 388.266C546.276 384.534 554.992 381.023 564.049 378.648C569.01 377.328 574.072 376.424 579.182 375.946C579.202 375.944 579.221 375.95 579.236 375.963C579.251 375.976 579.26 375.994 579.262 376.014C579.263 376.033 579.257 376.053 579.244 376.068C579.232 376.083 579.214 376.092 579.194 376.093L579.182 376.105Z" fill="#55BDFC"/>
<path d="M562.854 370.476C562.971 371.223 563.747 373.384 563.268 375.518C562.985 377.624 561.449 379.704 561.44 379.601C561.306 379.601 563.832 378.917 565.54 376.739C567.366 374.75 568.375 371.273 567.97 369.773C567.542 366.608 564.916 365.07 563.83 365.995C562.744 366.92 562.687 368.831 562.854 370.476Z" fill="#55BDFC"/>
<path d="M546.893 376.204C547.012 376.948 547.786 379.109 547.307 381.246C547.024 383.351 545.49 385.431 545.479 385.326C545.348 385.326 547.871 384.642 549.578 382.464C551.405 380.475 552.416 376.996 552.012 375.495C551.581 372.331 548.955 370.792 547.869 371.718C546.783 372.643 546.726 374.558 546.893 376.204Z" fill="#55BDFC"/>
<path d="M530.676 383.444C530.793 384.188 531.567 386.349 531.09 388.486C530.807 390.591 529.271 392.671 529.262 392.566C529.129 392.566 531.655 391.882 533.362 389.704C535.188 387.715 536.197 384.236 535.793 382.735C535.364 379.573 532.736 378.032 531.652 378.958C530.569 379.883 530.509 381.798 530.676 383.444Z" fill="#55BDFC"/>
<path d="M567.617 385.415C567.289 384.8 566.665 382.775 565.115 381.468C563.731 380.073 561.441 379.4 561.491 379.482C561.398 379.56 563.634 378.649 566.1 379.291C568.555 379.734 571.238 381.733 571.776 383.066C573.222 385.637 572.143 388.239 570.824 388.165C569.505 388.091 568.41 386.72 567.617 385.415Z" fill="#55BDFC"/>
<path d="M551.016 391.302C550.689 390.687 550.063 388.662 548.513 387.355C547.13 385.96 544.84 385.287 544.89 385.368C544.797 385.447 547.032 384.536 549.501 385.178C551.956 385.621 554.637 387.62 555.175 388.953C556.62 391.524 555.542 394.126 554.223 394.052C552.904 393.978 551.811 392.607 551.016 391.302Z" fill="#55BDFC"/>
<path d="M580.261 379.356C579.975 379.013 579.308 377.825 578.168 377.21C577.118 376.516 575.592 376.396 575.632 376.442C575.585 376.504 576.87 375.635 578.489 375.712C580.089 375.666 582.037 376.566 582.551 377.331C583.799 378.762 583.465 380.532 582.63 380.658C581.794 380.785 580.932 380.071 580.261 379.356Z" fill="#55BDFC"/>
<path d="M578.346 371.538C578.28 371.979 578.334 373.341 577.684 374.464C577.149 375.604 575.911 376.508 575.922 376.446C575.849 376.42 577.399 376.486 578.749 375.566C580.137 374.767 581.327 372.978 581.368 372.058C581.687 370.19 580.475 368.85 579.701 369.181C578.927 369.513 578.544 370.577 578.346 371.538Z" fill="#55BDFC"/>
<path d="M111.745 265.139C90.455 246.124 79.5101 218.819 74.0769 199.257C68.1771 178.031 67.3176 161.077 67.3104 160.907L66.1533 160.836C66.1533 161.008 67.0223 178.079 72.9579 199.455C78.4339 219.208 89.5051 246.794 111.052 266.043L111.745 265.139Z" fill="#85D1FF"/>
<path d="M69.7337 156C70.7837 160.889 69.9051 165.509 67.6671 168.843C64.1601 166.258 61.4006 162.113 60.353 157.224C59.3054 152.335 60.1816 147.715 62.4196 144.381C65.9267 146.966 68.6837 151.111 69.7337 156Z" fill="#85D1FF"/>
<path d="M63.205 169.923C66.8644 173.341 69.0072 177.832 69.431 182.153C65.4049 182.337 60.9741 180.701 57.3075 177.283C53.6409 173.866 51.4958 169.375 51.0791 165.051C55.1076 164.867 59.536 166.506 63.205 169.923Z" fill="#85D1FF"/>
<path d="M61.4838 184.551C65.9173 185.966 69.664 188.988 71.9907 193.025C68.6836 195.154 64.2528 195.765 59.6934 194.334C55.2592 192.919 51.5123 189.896 49.1865 185.858C52.4936 183.731 56.9244 183.118 61.4838 184.551Z" fill="#85D1FF"/>
<path d="M68.5024 202.147C72.1142 203.289 74.9998 206.201 76.6355 209.891C73.8975 212.195 70.3143 213.067 66.7024 211.927C63.0906 210.787 60.205 207.873 58.5693 204.184C61.3074 201.88 64.893 201.007 68.5024 202.147Z" fill="#85D1FF"/>
<path d="M74.6694 177.033C75.9865 175.683 77.5919 174.649 79.3651 174.009C81.1382 173.369 83.033 173.14 84.9072 173.339C85.0224 175.292 84.7288 177.247 84.0453 179.08C83.3619 180.912 82.3035 182.582 80.9382 183.981C79.6202 185.33 78.0147 186.363 76.2418 187.002C74.4689 187.642 72.5745 187.872 70.7004 187.675C70.5846 185.722 70.8779 183.766 71.5614 181.934C72.2449 180.101 73.3036 178.432 74.6694 177.033Z" fill="#85D1FF"/>
<path d="M77.9619 189.644C79.2793 188.294 80.8847 187.26 82.6577 186.62C84.4307 185.98 86.3254 185.75 88.1997 185.948C88.3178 187.9 88.027 189.855 87.346 191.687C86.6649 193.52 85.6087 195.19 84.2451 196.589C82.9277 197.939 81.3223 198.973 79.5493 199.613C77.7763 200.254 75.8816 200.484 74.0073 200.286C73.8887 198.334 74.1793 196.379 74.8604 194.546C75.5415 192.713 76.598 191.044 77.9619 189.644Z" fill="#85D1FF"/>
<path d="M98.915 290.934C79.2561 288.072 62.4327 276.386 51.7735 267.116C40.2119 257.042 33.2192 247.521 33.1502 247.426L32.4502 247.829C32.5192 247.924 39.5619 257.516 51.1997 267.66C61.9542 277.035 78.9537 288.819 98.8555 291.726L98.915 290.934Z" fill="#85D1FF"/>
<path d="M32.6829 243.636C35.1662 246.074 36.4257 249.098 36.4019 251.895C33.371 251.74 30.1806 250.39 27.6974 247.953C25.2141 245.515 23.957 242.491 23.9808 239.691C27.0093 239.858 30.1997 241.196 32.6829 243.636Z" fill="#85D1FF"/>
<path d="M34.2217 254.238C37.6644 254.816 40.6286 256.6 42.5262 258.953C40.2572 260.609 37.0502 261.36 33.6145 260.783C30.1789 260.206 27.2052 258.419 25.3076 256.065C27.5814 254.405 30.7813 253.661 34.2217 254.238Z" fill="#85D1FF"/>
<path d="M38.8232 263.402C41.9437 262.52 45.2802 262.837 48.1801 264.289C47.0706 266.798 44.7302 268.856 41.5303 269.774C38.4106 270.656 35.0748 270.34 32.1758 268.887C33.2948 266.381 35.6257 264.322 38.8232 263.402Z" fill="#85D1FF"/>
<path d="M49.6449 270.934C52.183 270.218 54.9781 270.796 57.34 272.308C57.0075 273.503 56.3725 274.592 55.4966 275.47C54.6207 276.347 53.5334 276.983 52.3401 277.316C49.8045 278.032 47.0093 277.454 44.6475 275.942C44.9797 274.747 45.6143 273.658 46.4898 272.781C47.3653 271.904 48.4521 271.267 49.6449 270.934Z" fill="#85D1FF"/>
<path d="M43.6087 253.965C43.8573 252.673 44.395 251.454 45.1814 250.4C45.9678 249.346 46.9824 248.484 48.149 247.879C48.9643 248.97 49.543 250.219 49.848 251.547C50.1531 252.875 50.1777 254.252 49.9204 255.589C49.6714 256.882 49.1332 258.101 48.3464 259.155C47.5597 260.209 46.5447 261.071 45.3777 261.676C44.5618 260.586 43.9829 259.336 43.6782 258.008C43.3735 256.68 43.3498 255.303 43.6087 253.965Z" fill="#85D1FF"/>
<path d="M50.3545 260.03C50.6035 258.738 51.1416 257.518 51.9284 256.464C52.7152 255.409 53.7302 254.547 54.8972 253.941C55.7124 255.033 56.2908 256.282 56.5955 257.611C56.9001 258.939 56.9242 260.316 56.6662 261.654C56.4172 262.947 55.879 264.166 55.0923 265.22C54.3055 266.274 53.2905 267.136 52.1235 267.741C51.3086 266.65 50.7304 265.4 50.4257 264.073C50.1211 262.745 50.0968 261.368 50.3545 260.03Z" fill="#85D1FF"/>
<path d="M110.752 349.873C88.0741 358.497 63.1129 353.942 46.1657 348.602C27.7662 342.804 14.5737 334.858 14.4428 334.77L13.9404 335.724C14.0738 335.805 27.3615 343.813 45.88 349.652C62.9962 355.046 88.2146 359.645 111.171 350.913L110.752 349.873Z" fill="#C1E8FF"/>
<path d="M11.6521 330.163C15.6014 331.69 18.8071 334.689 20.5971 338.532C17.2757 340.232 13.0615 340.488 8.94499 338.887C4.99568 337.361 1.78993 334.361 0 330.519C3.32134 328.816 7.53551 328.563 11.6521 330.163Z" fill="#C1E8FF"/>
<path d="M19.6872 342.938C21.5929 342.263 23.6184 341.995 25.6337 342.15C27.6489 342.306 29.6094 342.882 31.3893 343.841C30.6409 345.693 29.5043 347.363 28.0564 348.737C26.6086 350.111 24.8831 351.158 22.9967 351.807C21.0921 352.48 19.0683 352.748 17.0546 352.593C15.0409 352.438 13.0816 351.864 11.3018 350.908C12.0491 349.056 13.1844 347.386 14.631 346.011C16.0776 344.636 17.8018 343.588 19.6872 342.938Z" fill="#C1E8FF"/>
<path d="M30.1177 351.924C32.9748 348.724 36.8342 347.128 40.6222 347.2C40.7901 349.238 40.5421 351.29 39.8934 353.23C39.2446 355.17 38.2086 356.957 36.8485 358.483C33.9914 361.683 30.1344 363.279 26.3464 363.207C26.1776 361.169 26.4249 359.117 27.0733 357.177C27.7217 355.237 28.7575 353.45 30.1177 351.924Z" fill="#C1E8FF"/>
<path d="M44.7222 356.562C47.5793 353.364 51.4363 351.769 55.2243 351.84C55.393 353.879 55.1456 355.931 54.4972 357.87C53.8488 359.81 52.8131 361.597 51.453 363.123C48.5959 366.322 44.7389 367.917 40.9509 367.848C40.7821 365.809 41.0294 363.757 41.6778 361.817C42.3261 359.876 43.362 358.089 44.7222 356.562Z" fill="#C1E8FF"/>
<path d="M30.9828 341.573C28.4709 338.298 27.3519 334.351 27.6186 330.771C30.9256 331.158 34.3065 333.083 36.8159 336.357C39.3254 339.632 40.4468 343.579 40.1801 347.158C36.8659 346.772 33.4922 344.847 30.9828 341.573Z" fill="#C1E8FF"/>
<path d="M46.1507 346.325C43.5936 343.089 42.4127 339.156 42.6199 335.564C45.9269 335.894 49.3316 337.761 51.8887 340.997C54.4457 344.234 55.6267 348.169 55.4195 351.761C52.1029 351.431 48.703 349.564 46.1507 346.325Z" fill="#C1E8FF"/>
<path d="M63.9008 357.833C64.2035 357.036 64.682 356.319 65.3004 355.733C65.9188 355.148 66.6612 354.711 67.4721 354.453C67.8576 355.252 68.075 356.122 68.1111 357.008C68.1471 357.895 68.0009 358.779 67.6816 359.607C67.3787 360.403 66.9002 361.121 66.2819 361.706C65.6635 362.291 64.9211 362.729 64.1103 362.986C63.7254 362.187 63.5082 361.318 63.4722 360.431C63.4361 359.545 63.582 358.66 63.9008 357.833Z" fill="#C1E8FF"/>
<path d="M159.422 401.32C159.422 401.32 188.314 286.842 178.733 275.352C165.493 259.456 154.57 312.185 153.496 307.706C143.375 265.411 140.679 211.294 108.021 205.568C89.4499 202.31 112.306 245.809 110.933 257.574C109.559 269.339 76.1217 230.279 55.7984 209.809C35.4752 189.339 24.9754 202.301 37.8179 228.032C50.2367 252.914 90.4094 280.105 82.1286 283.332C73.8479 286.559 23.5755 254.431 17.4185 268.168C9.87109 285.011 85.2738 307.93 78.1811 311.715C71.0885 315.5 35.0371 303.036 36.0228 315.915C37.0084 328.794 85.4571 328.317 84.6286 333.981C83.2881 343.153 51.2438 322.39 49.8343 335.083C48.3939 348.064 91.9927 345.696 91.2379 355.832C90.8046 361.649 81.4477 352.872 80.0692 360.933C76.9264 379.309 134.401 401.697 134.401 401.697L159.422 401.32Z" fill="#85D1FF"/>
<path d="M181.452 402.012C181.452 402.012 153.955 359.782 140.725 351.809C126.625 343.314 137.358 368.742 137.358 368.742C137.358 368.742 108.549 334.399 100.54 341.377C92.5309 348.355 99.7997 356.436 99.7997 356.436C99.7997 356.436 73.9361 348.759 69.2863 358.267C62.1436 372.889 104.721 385.007 104.721 385.007C104.721 385.007 86.4405 384.812 89.8047 394.678C94.8808 409.558 181.452 402.012 181.452 402.012Z" fill="#85D1FF"/>
<path d="M69.2861 358.274C73.936 348.766 99.7996 356.443 99.7996 356.443C99.7996 356.443 92.5307 348.362 100.54 341.384C108.549 334.406 131.596 355.288 131.596 355.288C131.596 355.288 129.18 338.064 146.534 353.237C158.931 364.074 181.452 402.007 181.452 402.007L69.2861 358.274Z" fill="#C1E8FF"/>
<path d="M148.074 295.981L149.308 295.137C126.927 261.176 120.087 220.853 118.297 193.007C116.354 162.789 119.766 140.33 119.799 140.106L118.27 139.66C118.235 139.899 114.799 162.496 116.749 192.895C118.551 220.977 125.449 261.657 148.074 295.981Z" fill="#C1E8FF"/>
<path d="M124.206 134.816C124.256 141.636 121.892 147.277 118.121 150.661C114.078 145.419 111.855 138.997 111.79 132.373C111.742 125.55 114.104 119.91 117.875 116.525C121.92 121.767 124.143 128.19 124.206 134.816Z" fill="#C1E8FF"/>
<path d="M112.081 150.15C115.89 156.182 117.464 162.955 116.842 168.767C111.605 167.274 106.331 163.236 102.514 157.205C98.6977 151.173 97.1335 144.4 97.7525 138.588C102.993 140.078 108.267 144.116 112.081 150.15Z" fill="#C1E8FF"/>
<path d="M105.963 168.472C111.335 172.27 115.303 177.742 117.249 184.033C112.418 185.386 106.535 184.272 101.059 180.456C95.6858 176.658 91.7179 171.187 89.7734 164.894C94.5971 163.54 100.471 164.644 105.963 168.472Z" fill="#C1E8FF"/>
<path d="M113.128 200.458C115.483 201.895 117.295 204.077 118.277 206.658C116.311 207.393 113.837 207.135 111.442 205.69C109.086 204.253 107.274 202.071 106.292 199.489C108.259 198.755 110.732 199.024 113.128 200.458Z" fill="#C1E8FF"/>
<path d="M115.076 212.308C117.431 213.745 119.242 215.927 120.223 218.508C118.257 219.241 115.785 218.971 113.39 217.54C111.033 216.104 109.221 213.922 108.24 211.339C110.197 210.607 112.678 210.877 115.076 212.308Z" fill="#C1E8FF"/>
<path d="M124.958 164.346C129.384 161.832 134.56 161.858 139.15 163.936C138.379 169.056 135.624 173.585 131.198 176.099C126.772 178.613 121.596 178.586 117.006 176.509C117.777 171.386 120.534 166.857 124.958 164.346Z" fill="#C1E8FF"/>
<path d="M125.844 182.193C130.27 179.682 135.446 179.708 140.036 181.785C139.267 186.906 136.51 191.435 132.084 193.949C127.658 196.462 122.482 196.434 117.892 194.356C118.661 189.236 121.418 184.705 125.844 182.193Z" fill="#C1E8FF"/>
<path d="M124.958 207.742C127.839 206.109 131.208 206.125 134.196 207.478C133.696 210.817 131.901 213.757 129.02 215.393C126.139 217.029 122.77 217.01 119.782 215.658C120.292 212.326 122.085 209.378 124.958 207.742Z" fill="#C1E8FF"/>
<path d="M440.866 308.456C443.466 308.88 443.314 309.305 443.647 309.35C444.042 309.403 448.738 307.041 448.738 307.041C448.738 307.041 462.625 300.175 463.361 299.777L473.385 287.137L481.11 290.714C481.11 290.714 469.837 304.144 469.123 304.735C468.408 305.327 448.5 312.322 446.769 312.997C446.769 312.997 445.021 314.595 443.892 315.561C442.764 316.526 441.252 316.908 440.893 317.127C439.922 317.616 438.893 317.978 437.831 318.203C436.314 318.535 437.578 317.502 437.578 317.502C437.578 317.502 440.264 316.367 440.131 316.162C440.028 316.002 438.602 316.712 436.928 317.096C436.497 317.194 436.071 317.292 435.681 317.375C434.652 317.597 434.202 317.008 435.233 316.598C435.697 316.404 436.174 316.244 436.662 316.121C437.159 316.016 437.578 315.754 437.981 315.601C438.444 315.449 438.898 315.267 439.338 315.057C439.295 315.022 439.409 314.843 438.947 314.933C438.395 315.043 437.281 315.541 436.447 315.634C435.971 315.689 435.005 315.873 435.005 315.873C435.005 315.873 433.281 316.038 433.269 315.797C433.245 315.267 434.305 314.974 434.957 314.986C435.419 314.814 435.898 314.693 436.386 314.626C436.386 314.626 438.383 313.834 438.266 313.538C438.221 313.421 437.012 313.602 435.728 313.691C434.371 313.784 433.388 313.784 433.314 313.519C433.2 313.102 434.281 312.944 434.281 312.944C434.281 312.944 435.233 312.806 435.545 312.734C435.909 312.651 436.974 312.312 436.974 312.312C436.974 312.312 440.65 310.96 440.516 310.69C440.383 310.421 439.776 309.849 439.516 309.851C439.257 309.853 438.802 310.111 438.536 310.113C438.269 310.116 437.719 310.063 437.681 309.736C437.643 309.41 439.081 308.735 439.081 308.735C439.081 308.735 440.114 308.334 440.866 308.456Z" fill="#F8A492"/>
<path d="M466.408 294.97C466.408 294.97 468.911 297.245 469.951 297.994C470.815 298.617 475.029 300.651 475.029 300.651C475.029 300.651 479.22 294.212 481.053 290.997C483.277 287.083 484.817 281.266 484.291 281.109C482.815 280.665 480.786 280.393 478.913 281.257C472.427 284.238 466.408 294.97 466.408 294.97Z" fill="#1074D2"/>
<path d="M443.295 311.816C442.181 311.993 441.042 311.781 440.55 310.76C440.44 311.971 442.271 312.572 443.295 311.816Z" fill="#FE875E"/>
<path d="M132.487 266.711C132.641 262.967 132.091 259.268 130.427 255.784C128.999 252.783 125.449 251.081 122.215 251.078C111.949 251.064 110.644 264.71 104.109 269.974C102.111 271.582 99.878 272.891 97.9899 274.627C91.0116 281.031 94.1544 292.886 100.561 298.503C105.009 302.397 111.99 304.613 117.466 301.565C120.323 299.977 122.496 297.334 124.044 294.436C126.239 290.327 127.656 285.586 129.215 281.205C130.889 276.542 132.279 271.689 132.487 266.711Z" fill="#13375B"/>
<path d="M134.163 284.844C130.956 275.099 126.723 275.252 126.723 275.252L130.144 296.001C132.123 295.46 134.701 294.253 136.68 293.692C136.025 290.611 134.958 287.244 134.163 284.844Z" fill="#AADEFE"/>
<path d="M150.37 318.083L138.647 309.126C138.647 309.126 137.456 300.766 135.887 293.352C133.909 293.91 132.123 295.465 130.145 296.006L133.125 312.615L148.492 320.557L152.83 326.142L153.818 320.418L150.37 318.083Z" fill="#F48C7F"/>
<path d="M257.235 304.086C260.741 304.082 264.187 304.993 267.235 306.728C267.626 306.948 268.03 307.143 268.445 307.313C277.454 311.019 287.311 304.155 287.311 294.398V246.42H239.424C229.684 246.42 222.832 236.544 226.531 227.522C226.701 227.105 226.895 226.7 227.115 226.308C228.902 223.142 229.809 219.554 229.742 215.918C229.674 212.282 228.635 208.73 226.733 205.633C224.83 202.535 222.133 200.006 218.923 198.307C215.712 196.608 212.106 195.802 208.48 195.974C197.932 196.451 189.432 205.141 189.144 215.714C189.037 219.321 189.892 222.892 191.623 226.057C191.841 226.455 192.033 226.866 192.199 227.288C195.87 236.461 188.909 246.42 179.045 246.42H131.567V355.744C131.567 381.532 152.438 402.436 178.183 402.436H287.32V354.618C287.32 344.813 277.432 337.907 268.366 341.601C267.95 341.769 267.544 341.962 267.152 342.181C264.443 343.699 261.423 344.576 258.324 344.743C255.224 344.911 252.128 344.364 249.272 343.146C246.416 341.927 243.878 340.069 241.851 337.715C239.824 335.36 238.362 332.571 237.579 329.562C236.796 326.554 236.712 323.405 237.333 320.359C237.954 317.312 239.264 314.449 241.162 311.989C243.06 309.529 245.496 307.537 248.282 306.167C251.069 304.797 254.131 304.085 257.235 304.086Z" fill="#005DB5"/>
<path d="M361.045 277.473C361.2 273.962 362.267 270.553 364.14 267.581C364.376 267.196 364.59 266.798 364.778 266.388C368.894 257.547 362.511 247.363 352.783 246.908L304.927 244.666L302.691 292.603C302.237 302.348 292.068 308.742 283.242 304.619C282.832 304.43 282.435 304.217 282.051 303.98C278.978 302.04 275.441 300.962 271.81 300.858C268.179 300.754 264.587 301.627 261.407 303.387C258.227 305.146 255.577 307.728 253.733 310.862C251.888 313.997 250.916 317.57 250.919 321.208C250.919 331.786 259.171 340.689 269.702 341.481C273.298 341.756 276.903 341.063 280.142 339.472C280.55 339.275 280.97 339.102 281.399 338.955C290.718 335.709 300.322 343.14 299.863 353.012L297.644 400.525L406.662 405.631C432.376 406.823 454.201 386.928 455.404 361.168L460.499 251.964L412.815 249.732C403.039 249.274 395.689 258.845 398.948 268.096C399.097 268.52 399.271 268.935 399.47 269.338C400.858 272.119 401.591 275.182 401.613 278.291C401.636 281.4 400.946 284.473 399.598 287.274C398.249 290.074 396.278 292.528 393.835 294.447C391.393 296.365 388.543 297.697 385.506 298.34C382.47 298.983 379.326 298.921 376.317 298.157C373.308 297.393 370.514 295.949 368.149 293.935C365.785 291.921 363.912 289.391 362.676 286.539C361.44 283.687 360.873 280.589 361.018 277.483L361.045 277.473Z" fill="#85D1FF"/>
<path d="M227.727 202.011C227.906 205.522 227.167 209.019 225.584 212.157C225.384 212.559 225.21 212.973 225.063 213.397C221.82 222.596 229.158 232.114 238.872 231.623L286.709 229.214L284.304 181.296C283.828 171.553 293.316 164.2 302.499 167.449C302.922 167.596 303.336 167.771 303.737 167.971C306.985 169.61 310.612 170.345 314.241 170.1C317.869 169.855 321.365 168.638 324.364 166.577C327.362 164.516 329.753 161.686 331.287 158.382C332.82 155.079 333.44 151.424 333.081 147.799C332.065 137.272 322.986 129.211 312.43 129.447C308.823 129.521 305.301 130.56 302.23 132.457C301.847 132.694 301.449 132.908 301.039 133.096C292.08 137.229 281.802 130.763 281.307 120.894L278.926 73.3887L169.912 78.874C144.198 80.1691 124.404 102.099 125.697 127.854L131.173 237.039L178.85 234.637C188.626 234.146 195.016 223.905 190.876 215.021C190.688 214.611 190.475 214.212 190.238 213.829C188.588 211.195 187.562 208.218 187.24 205.126C186.917 202.033 187.307 198.908 188.379 195.99C189.45 193.072 191.175 190.439 193.421 188.293C195.667 186.147 198.374 184.545 201.334 183.611C204.295 182.676 207.429 182.434 210.498 182.902C213.566 183.37 216.487 184.537 219.035 186.312C221.583 188.087 223.691 190.424 225.197 193.142C226.703 195.861 227.567 198.889 227.722 201.995L227.727 202.011Z" fill="#24A3F2"/>
<path d="M325.638 175.563C322.128 175.568 318.678 174.658 315.626 172.921C315.236 172.7 314.832 172.505 314.417 172.336C305.41 168.63 295.551 175.494 295.551 185.251V233.229H343.449C353.187 233.229 360.039 243.105 356.34 252.129C356.171 252.545 355.976 252.95 355.756 253.341C353.966 256.507 353.056 260.097 353.122 263.735C353.188 267.373 354.227 270.927 356.13 274.026C358.034 277.126 360.732 279.657 363.945 281.356C367.157 283.055 370.765 283.86 374.394 283.687C384.939 283.21 393.441 274.519 393.727 263.947C393.835 260.334 392.976 256.759 391.239 253.591C391.022 253.193 390.829 252.782 390.662 252.361C386.991 243.188 393.953 233.229 403.819 233.229H451.304V123.905C451.304 98.1167 430.426 77.2031 404.688 77.2031H295.551V125.021C295.551 134.826 305.441 141.733 314.505 138.038C314.922 137.87 315.328 137.677 315.722 137.459C318.43 135.942 321.449 135.066 324.547 134.9C327.646 134.734 330.741 135.281 333.595 136.5C336.45 137.719 338.987 139.576 341.013 141.93C343.039 144.284 344.5 147.072 345.283 150.08C346.066 153.088 346.15 156.235 345.53 159.28C344.909 162.326 343.6 165.188 341.703 167.648C339.807 170.107 337.372 172.099 334.587 173.469C331.802 174.84 328.741 175.553 325.638 175.554V175.563Z" fill="#023E78"/>
<path d="M100.395 387.27C100.395 387.27 99.6809 392.307 98.4262 393.931C98.0095 394.477 97.2357 395.166 96.7453 396.153C95.9643 397.687 96.3953 399.969 96.9715 401.231C97.2667 401.877 96.95 401.875 97.6238 402.085C98.5921 402.37 99.6311 402.289 100.544 401.858C101.457 401.428 102.181 400.677 102.578 399.748C103.167 398.39 103.496 396.934 103.55 395.455C103.762 390.88 105.178 388.555 105.178 388.555L100.395 387.27Z" fill="#F7A491"/>
<path d="M122.163 389.572C122.163 389.572 122.61 395.251 122.246 397.097C122.053 398.087 120.972 400.121 121.467 401.051C121.963 401.981 122.529 402.212 122.529 402.212L135.386 402.42C136.086 402.432 135.624 401.981 135.058 401.564C134.134 400.882 133.391 400.431 130.439 398.998C130.246 398.905 129.546 398.456 129.293 398.301C128.607 397.846 127.988 397.298 127.453 396.672C126.532 395.64 126.451 390.638 126.451 390.638L122.163 389.572Z" fill="#F7A491"/>
<path d="M132.208 314.075C132.208 314.075 133.825 323.295 132.763 329.338C131.701 335.382 126.601 391.426 126.601 391.426L120.935 391.745C120.935 391.745 119.744 368.337 119.958 365.082C120.173 361.826 121.863 356.379 121.863 356.379L121.301 337.478L128.444 312.648L132.208 314.075Z" fill="#1074D2"/>
<path d="M115.551 312.133C115.551 312.133 111.09 318.878 110.025 324.459C108.961 330.04 110.806 347.19 108.761 354.509C107.656 358.466 103.461 364.581 102.826 369.697C102.19 374.812 99.6875 388.201 99.6875 388.201L105.352 389.329L118.516 355.864L128.841 325.616L131.489 310.037L115.551 312.133Z" fill="#1074D2"/>
<path d="M119.163 273.768C119.163 273.768 113.256 273.391 110.918 275.947C108.58 278.504 116.104 298.74 116.528 301.996C116.951 305.251 114.361 313.906 114.361 313.906C114.361 313.906 128.242 316.711 132.218 314.076C132.218 314.076 132.641 290.665 132.218 288.34C131.794 286.014 128.251 276.558 127.399 275.628C126.546 274.698 119.163 273.768 119.163 273.768Z" fill="#AADEFE"/>
<path d="M121.13 265.853C121.13 265.853 121.099 266.027 121.044 266.33C120.782 267.761 119.768 272.488 119.082 273.788C118.254 275.362 121.918 280.373 125.444 279.75C126.492 279.567 124.556 275.145 124.649 274.675C124.827 273.778 125.068 272.555 125.316 271.3C125.456 270.585 125.596 269.869 125.73 269.199L126.413 265.715L121.13 265.853Z" fill="#F7A491"/>
<path d="M121.044 266.312C121.099 266.016 121.13 265.835 121.13 265.835L126.413 265.701L125.73 269.193C125.596 269.863 125.456 270.578 125.318 271.282C124.372 271.112 123.496 270.671 122.796 270.011C121.923 269.24 121.266 268.253 120.892 267.149C120.949 266.822 121.004 266.534 121.044 266.312Z" fill="#005DB5"/>
<path d="M124.687 253.784C124.687 253.784 122.196 253.495 120.639 255.522C119.082 257.55 117.397 263.817 121.275 267.225C125.153 270.633 128.984 266.775 129.551 262.694C130.118 258.613 130.337 253.636 124.687 253.784Z" fill="#F7A491"/>
<path d="M130.693 262.624C130.232 263.528 129.453 264.029 128.958 263.743C128.463 263.457 128.436 262.491 128.898 261.596C129.36 260.702 130.139 260.194 130.634 260.48C131.129 260.767 131.148 261.72 130.693 262.624Z" fill="#F7A491"/>
<path d="M124.959 253.114C124.959 253.114 121.625 259.076 119.245 259.351C116.864 259.625 116.552 262.792 116.552 262.792C116.552 262.792 117.402 255.494 119.759 254.087C122.116 252.68 124.959 253.114 124.959 253.114Z" fill="#13375B"/>
<path d="M102.963 398.741C99.8681 399.306 97.8205 397.494 96.7539 396.137C95.9682 397.673 95.5849 399.967 96.1634 401.231C96.6705 402.345 98.1562 402.311 99.3252 402.357C100.563 402.402 101.52 401.713 102.132 400.63C102.472 400.03 102.751 399.397 102.963 398.741Z" fill="#005DB5"/>
<path d="M129.287 398.302C125.887 399.178 123.375 398.581 121.97 398.014C121.608 399.044 121.127 400.339 121.382 401.083C121.694 401.997 122.139 402.204 122.53 402.214C125.625 402.297 133.901 402.407 136.27 402.438C136.343 402.438 136.416 402.417 136.478 402.378C136.54 402.338 136.59 402.282 136.622 402.215C136.653 402.148 136.665 402.074 136.656 402C136.647 401.927 136.617 401.858 136.57 401.801C135.982 401.097 129.539 398.457 129.287 398.302Z" fill="#005DB5"/>
<path d="M119.882 260.844C120.075 261.903 119.687 262.874 119.013 263.012C118.34 263.15 117.635 262.406 117.442 261.343C117.249 260.279 117.637 259.313 118.311 259.175C118.985 259.036 119.69 259.788 119.882 260.844Z" fill="#F7A491"/>
<path d="M123.768 264.514L126.772 264.65C126.772 264.65 126.651 265.79 125.33 265.768C123.715 265.742 123.768 264.514 123.768 264.514Z" fill="white"/>
<path d="M379.952 24.5586C380.328 24.5729 381.352 24.9164 382.852 27.7544C384.757 31.3796 387.564 42.3265 387.564 42.3265L379.212 45.4412L378.138 43.1564L376.371 25.5651C376.371 25.5651 379.84 24.5538 379.952 24.5586Z" fill="#1074D2"/>
<path d="M368.901 22.9805C371.282 22.9805 377.199 23.6816 379.942 24.5593C379.942 24.5593 381.958 41.905 378.127 55.0866C377.273 58.0368 378.842 67.3166 378.842 67.3166L354.095 66.9899C354.095 66.9899 357.028 44.5547 355.923 40.9296C354.819 37.3045 354.792 24.6762 354.792 24.6762C354.792 24.6762 354.961 24.6499 360.352 23.7222C363.179 23.2563 366.037 23.0083 368.901 22.9805Z" fill="#005DB5"/>
<path d="M366.019 99.5117C366.019 99.5117 366.566 105.841 367.573 107.594C368.58 109.347 367.521 112.326 367.469 112.736C367.416 113.146 365.35 113.728 362.064 113.378C358.778 113.027 358.831 112.269 359.097 111.041C359.364 109.812 361.109 108.236 361.216 107.067C361.323 105.899 360.209 101.694 360.209 101.694L366.019 99.5117Z" fill="#F7A491"/>
<path d="M376.044 62.0939C376.044 62.0939 393.127 61.1399 396.944 63.4581C400.76 65.7763 394.237 77.1286 394.237 77.1286C394.237 77.1286 382.351 76.5801 359.069 77.9276C353.555 78.2448 353.078 63.5273 354.109 62.3086C355.14 61.0899 376.044 62.0939 376.044 62.0939Z" fill="#55BDFC"/>
<path d="M361.654 113.87C358.271 113.51 358.69 111.845 358.962 110.581C359.133 109.789 360.105 108.857 360.683 107.977C360.985 108.215 361.476 108.642 362.945 109.078C364.471 109.529 366.561 108.635 367.895 108.077C368.24 109.506 368.392 110.976 368.345 112.446C368.285 112.868 365.035 114.232 361.654 113.87Z" fill="#1074D2"/>
<path d="M363.523 74.3423C364.207 79.5153 367.585 105.27 367.585 105.27L359.745 106.243C359.745 106.243 350.102 72.6156 350.598 67.4856C351.093 62.3556 354.7 61.912 354.7 61.912C354.7 61.912 361.714 60.6408 363.523 74.3423Z" fill="#AADEFE"/>
<path d="M354.518 26.6024C356.83 25.7343 357.964 46.6169 358.275 55.2218C362.373 55.6177 369.516 55.2218 371.292 55.0906C372.13 55.0286 374.058 54.3203 374.889 54.213C375.564 54.0958 376.251 54.063 376.934 54.1152C377.087 54.1414 381.358 55.892 381.722 56.2759C382.177 56.7529 383.389 57.9454 383.194 58.4701C382.999 58.9948 380.839 57.0248 380.839 57.0248L379.789 56.4333C381.096 57.7141 383.599 59.3978 383.232 60.0108C382.865 60.6237 380.632 58.8994 379.027 57.7355C380.403 58.9781 382.122 61.2056 381.718 61.5514C381.363 61.8639 379.42 59.2857 377.344 58.544C376.575 58.2698 375.806 59.021 375.201 59.1236C374.756 59.1903 374.07 59.3334 373.632 59.2094L371.385 58.5726C370.618 58.6418 370.599 59.095 369.825 59.2595C368.928 59.4503 367.444 59.653 366.311 59.9321C359.723 61.5443 357.528 62.2932 355.511 62.2932C349.404 62.2789 349.05 28.6583 354.518 26.6024Z" fill="#F7A491"/>
<path d="M350.126 46.2002C349.693 37.395 349.757 26.5435 354.686 24.6928C356.628 23.9606 360.057 28.3537 359.447 46.3791C356.809 46.6057 352.948 46.7822 350.126 46.2002Z" fill="#1074D2"/>
<path d="M388.949 104.926C388.949 104.926 388.263 107.122 389.489 108.577C390.716 110.032 395.803 111.456 396.473 112.243C397.142 113.03 397.094 113.693 397.094 113.693L382.809 113.299L382.966 108.975L383.623 105.875L388.949 104.926Z" fill="#F7A491"/>
<path d="M390.377 109.303C390.377 109.303 386.706 110.789 384.932 109.909C383.159 109.029 383.213 108.784 382.699 109.113C382.185 109.442 382.004 113.494 382.004 113.494L398.068 113.971C399.187 113.945 399.751 113.119 398.844 112.413C398.288 112.02 397.702 111.672 397.092 111.371C395.834 110.644 390.377 109.303 390.377 109.303Z" fill="#1074D2"/>
<path d="M388.406 66.1498C389.51 63.8221 392.022 60.7908 396.441 62.6153C400.655 64.3563 401.786 68.6349 400.455 73.0161C399.124 77.3972 390.372 103.155 390.067 106.696L383.077 106.742C383.077 106.742 384.349 86.3479 384.66 81.4182C384.951 76.6746 386.494 70.178 388.406 66.1498Z" fill="#AADEFE"/>
<path d="M399.753 42.4277H376.38C376.077 42.4287 375.781 42.5199 375.53 42.6898C375.279 42.8597 375.085 43.1005 374.971 43.3817L367.778 61.0184H354.895C354.809 61.0187 354.725 61.0359 354.646 61.0691C354.567 61.1022 354.495 61.1506 354.434 61.2115C354.374 61.2724 354.326 61.3446 354.294 61.424C354.261 61.5034 354.245 61.5884 354.245 61.6743C354.245 61.8472 354.314 62.013 354.435 62.1355C354.557 62.258 354.722 62.3271 354.895 62.3277H391.561C392.055 62.3275 392.538 62.1839 392.952 61.9143C393.366 61.6447 393.693 61.2606 393.894 60.8085L401.139 44.5909C401.244 44.3582 401.29 44.1028 401.271 43.848C401.253 43.5931 401.171 43.347 401.033 43.132C400.896 42.9169 400.706 42.7398 400.483 42.6168C400.259 42.4938 400.008 42.4288 399.753 42.4277Z" fill="#00284E"/>
<path d="M387.173 52.6957C387.016 53.4875 386.328 54.0169 385.637 53.8881C384.947 53.7594 384.516 52.9938 384.673 52.202C384.83 51.4102 385.521 50.8807 386.211 51.0095C386.901 51.1383 387.332 51.9039 387.173 52.6957Z" fill="white"/>
<path d="M374.456 1.79512C373.751 1.56189 373.061 1.2847 372.39 0.965155C371.633 0.600258 370.652 0.170969 370.033 0.0755707C368.728 -0.12715 366.487 0.00879 365.249 1.35151C363.709 3.02098 360.964 1.6544 361.523 10.4262C362.147 20.3548 367.659 19.2649 367.792 19.0955C367.925 18.9262 372.706 12.7444 372.706 12.7444C372.706 12.7444 374.373 16.4077 374.373 16.2741C374.373 16.1406 382.913 4.64751 374.456 1.79512Z" fill="#00284E"/>
<path d="M370.271 19.8301L370.747 23.3765C370.747 23.3765 371.814 28.4875 370.442 29.4725C369.071 30.4574 364.611 23.2311 364.611 23.2311L365.088 14.2422L370.271 19.8301Z" fill="#F7A491"/>
<path d="M364.931 17.1566C366.064 20.2212 368.762 22.1125 370.666 22.828L370.261 19.8206L365.083 14.2422L364.931 17.1566Z" fill="#005DB5"/>
<path d="M369.99 4.46315C370.671 4.35829 371.366 4.40388 372.027 4.59673C372.689 4.78958 373.3 5.12502 373.818 5.57951C374.336 6.03401 374.749 6.59655 375.027 7.22769C375.305 7.85884 375.442 8.54329 375.428 9.23305C375.393 10.7568 375.26 12.2768 375.03 13.7835C374.399 17.8785 371.609 21.4845 369.766 21.1625C367.923 20.8406 363.281 17.3085 364.097 11.482C364.602 7.8927 366.943 4.95207 369.99 4.46315Z" fill="#F7A491"/>
<path d="M365.378 12.1857C365.223 13.0872 364.502 13.712 363.769 13.5856C363.035 13.4592 362.578 12.6317 362.726 11.723C362.874 10.8143 363.6 10.1966 364.333 10.323C365.066 10.4494 365.533 11.2866 365.378 12.1857Z" fill="#F7A491"/>
<path d="M364.333 10.3227C364.333 10.3227 366.564 10.8784 367.39 9.44265C368.216 8.00691 371.178 4.91125 374.937 6.18958C378.697 7.46791 371.628 3.0653 371.328 3.0653L367.416 3.03906C367.416 3.03906 364.633 5.33338 364.533 5.58619C364.433 5.83899 363.628 8.58406 363.628 8.58406L364.333 10.3227Z" fill="#0E2E35"/>
<path d="M368.414 16.3184L372.461 17.0935C372.461 17.0935 372.073 18.6246 370.281 18.336C368.102 17.9831 368.414 16.3184 368.414 16.3184Z" fill="white"/>
<path d="M299.78 299.285C299.877 299.661 300.025 300.023 300.221 300.358C301.492 302.679 304.444 305.989 304.444 305.989L306.73 300.835C306.73 300.835 306.356 299.216 305.711 296.902C303.506 297.48 301.404 297.811 299.78 299.285Z" fill="#F8A492"/>
<path d="M312.873 294.816C312.873 294.816 300.135 300.301 299.723 300.206C299.459 300.137 294.499 291.823 294.444 284.002C294.421 280.392 298.166 276.046 302.342 276.907C304.447 277.339 304.413 277.926 307.525 282.455C310.637 286.984 312.873 294.816 312.873 294.816Z" fill="#13375B"/>
<path d="M323.743 393.322L323.441 398.331C323.329 398.967 322.891 400.539 322.891 401.119C322.891 403.291 333.19 399.273 330.883 398.309C330.674 398.223 329.579 397.565 329.51 396.826C329.405 395.686 329.136 393.38 329.136 393.38L323.743 393.322Z" fill="#F7A491"/>
<path d="M330.857 398.302C330.857 398.302 328.438 398.965 327.2 399.132C325.962 399.299 324.329 397.899 323.453 398.278C322.5 398.693 322.526 402.438 322.526 402.438C322.526 402.438 335.493 403.504 339.14 402.402C340.585 401.963 335.8 399.85 330.857 398.302Z" fill="#1074D2"/>
<path d="M302.676 393.322C302.676 393.322 302.373 398.331 302.371 398.331C302.261 398.967 301.823 400.539 301.823 401.119C301.823 403.291 312.123 399.273 309.814 398.309C309.606 398.223 308.187 397.071 308.118 396.332C308.011 395.194 308.068 393.38 308.068 393.38L302.676 393.322Z" fill="#F7A491"/>
<path d="M309.789 398.302C309.789 398.302 307.37 398.965 306.132 399.132C304.894 399.299 303.26 397.899 302.384 398.278C301.432 398.693 301.382 402.438 301.382 402.438C301.382 402.438 314.408 403.68 318.072 402.402C319.493 401.903 314.731 399.85 309.789 398.302Z" fill="#1074D2"/>
<path d="M305.822 302.065L314.893 289.334C314.932 289.225 315.015 288.996 315.132 288.647C315.589 287.383 316.539 284.755 317.367 282.141V282.113C317.629 281.199 318.179 279.606 318.712 278.058C319.305 276.344 320.041 274.216 320.067 273.854C320.046 273.792 320.003 273.68 319.946 273.532C319.612 272.668 319.162 270.608 318.993 269.716C318.893 269.146 318.791 267.758 319.47 267.758C320.531 267.758 320.027 269.143 320.517 270.007C320.826 269.063 321.072 268.1 321.253 267.123L321.431 264.416C321.465 264.214 321.248 262.721 321.996 262.721H322.031C322.7 262.771 322.686 264.357 322.965 267.042C323.053 266.732 323.141 266.36 323.203 266.019C323.248 265.542 323.327 265.068 323.441 264.602C323.308 263.854 323.386 262.673 324.181 262.785C324.579 262.84 324.546 264.488 324.546 264.488C324.546 264.712 324.519 266.453 324.531 266.799C324.612 266.215 324.931 263.722 325.555 263.722C326.072 263.722 326.115 264.393 326.103 264.915C326.103 265.227 325.772 267.927 325.755 268.254C325.993 267.844 326.286 265.466 326.529 265.466C327.536 265.466 327.172 268.848 326.8 269.728C326.753 269.884 326.715 270.044 326.686 270.205C326.535 271.085 326.244 271.934 325.822 272.721C325.188 273.806 324.315 275.533 324.181 275.797C324.084 276.336 323.779 278.275 323.398 280.715C323.234 281.757 323.055 282.902 322.869 284.087C322.834 284.345 322.646 285.161 321.917 288.221C320.936 292.409 320.834 292.59 320.791 292.666C320.365 293.422 310.584 306.725 310.167 307.293L309.929 307.627L305.822 302.065Z" fill="#F7A491"/>
<path d="M322.694 272.376C322.694 272.376 321.958 270.489 320.648 270.485C320.878 270.413 321.121 270.397 321.357 270.439C321.594 270.48 321.817 270.578 322.008 270.723C322.636 271.217 322.694 272.376 322.694 272.376Z" fill="#005DB5"/>
<path d="M303.632 268.732L302.463 276.126C302.463 276.126 306.913 279.703 309.506 278.949C311.682 278.317 310.191 275.467 310.191 275.467C310.191 275.467 309.032 271.518 309.387 269.448C309.741 267.378 303.632 268.732 303.632 268.732Z" fill="#F7A491"/>
<path d="M304.478 270.967C306.078 271.685 307.774 272.167 309.513 272.398C309.349 271.36 309.256 270.265 309.394 269.457C309.558 268.503 308.344 268.276 306.992 268.31C305.218 268.46 303.639 268.739 303.639 268.739L303.401 270.17C303.708 270.499 304.073 270.769 304.478 270.967Z" fill="#FE875E"/>
<path d="M298.016 260.199C297.833 260.199 299.775 268.463 302.778 269.884C305.78 271.306 310.266 270.566 311.111 268.339C312.042 265.877 308.649 257.447 304.42 256.376C300.192 255.305 298.016 260.199 298.016 260.199Z" fill="#F7A491"/>
<path d="M301.494 252.604C299.789 253.597 298.435 255.098 297.621 256.897C296.494 257.434 295.13 258.591 294.475 261.713C293.671 265.552 296.532 268.512 299.566 269.402C302.599 270.291 303.068 272.302 303.068 272.302L303.413 270.139C303.413 270.139 302.737 268.254 301.723 267.31C300.709 266.366 302.199 264.994 302.335 263.873C302.437 263.01 301.801 261.333 301.939 259.917C301.939 259.917 303.625 257.358 305.287 256.726C308.12 255.643 304.575 250.828 301.494 252.604Z" fill="#13375B"/>
<path d="M302.773 265.306C303.166 266.26 303.011 267.214 302.413 267.424C301.816 267.634 301.025 267.038 300.632 266.084C300.24 265.13 300.394 264.176 300.992 263.966C301.59 263.756 302.38 264.352 302.773 265.306Z" fill="#F7A491"/>
<path d="M313.97 302.267L331.467 299.405C331.467 299.405 329.476 294.396 328.765 294.396C328.053 294.396 315.534 299.882 315.534 299.882L314.539 301.883L313.97 302.267Z" fill="#F8A492"/>
<path d="M305.008 314.286C305.008 314.286 303.262 322.738 303.972 329.149C304.681 335.559 304.741 358.324 304.741 358.324L302.024 394.751L308.453 394.892C308.453 394.892 316.091 358.481 315.948 359.416C315.805 360.351 318.524 333.78 318.524 333.78L309.419 313.484L305.008 314.286Z" fill="#023E78"/>
<path d="M306.715 313.883C306.715 313.883 305.577 321.493 306.999 324.832C308.42 328.171 319.201 360.924 319.344 363.592C319.487 366.261 323.07 395.789 323.07 395.789L330.558 395.579L332.179 362.763L328.786 321.517L325.494 311.088L306.715 313.883Z" fill="#13375B"/>
<path d="M302.463 276.127C302.463 276.127 304.31 277.341 306.034 277.2C307.758 277.06 310.194 275.469 310.194 275.469L309.853 274.319C309.853 274.319 305.399 273.668 305.287 273.74C305.175 273.811 302.463 276.127 302.463 276.127Z" fill="#F7A491"/>
<path d="M322.146 294.141C322.146 294.141 328.764 300.4 331.752 299.331C334.74 298.263 335.976 294.611 328.686 289.269C322.162 284.487 322.146 294.141 322.146 294.141Z" fill="#F8A492"/>
<path d="M326.631 301.867C325.648 296.51 318.522 279.837 317.953 276.765C317.676 275.272 313.831 275.239 310.172 275.434C306.305 275.639 302.462 276.128 302.462 276.128C302.462 276.128 299.039 276.693 297.534 278.105C296.029 279.517 295.629 283.428 297.791 290.85C299.501 296.71 301.62 299.928 302.67 304.206C302.882 305.637 303.062 307.049 303.305 308.699C303.689 315.081 303.305 323.51 303.305 323.51C303.305 323.51 321.941 327.383 328.912 321.507C328.907 321.495 327.638 307.352 326.631 301.867Z" fill="#1074D2"/>
<path d="M331.381 290.347C331.381 290.347 324.069 296.393 323.643 296.393C323.369 296.393 313.208 288.906 310.863 282.756C309.567 279.355 312.291 275.551 315.386 275.563C317.541 275.563 318.498 276.128 322.767 279.731C327.036 283.335 331.381 290.347 331.381 290.347Z" fill="#1074D2"/>
<path d="M202.747 20.4429C203.937 17.5547 205.163 14.6618 208.273 13.1974C210.789 12.005 213.418 12.4605 215.653 14.1514C221.989 18.9213 216.468 24.1801 223.679 33.231C225.92 36.0428 228.632 38.3133 229.974 41.6069C231.853 46.2194 229.615 48.4326 226.027 50.6435C208.863 61.2088 199.866 39.5225 200.194 34.5451C200.432 30.8532 201.975 22.3103 202.747 20.4429Z" fill="#13375B"/>
<path d="M184.933 76.692C185.647 76.5775 187.414 75.3159 188.028 75.2014C188.504 75.1132 189.549 74.9629 189.992 74.889C190.535 72.857 193.292 61.7885 193.599 58.5426C193.935 55.0272 196.416 39.8184 196.416 39.8184L202.844 40.9894C202.844 40.9894 200.18 52.6899 199.442 58.3637C198.808 63.2362 193.473 74.1926 192.794 75.3493C192.794 75.3779 192.794 75.4042 192.794 75.4328C192.692 77.1523 191.866 76.5799 191.866 76.5799L190.521 76.9234C190.521 76.9234 185.759 77.3813 185.454 77.4957C185.149 77.6102 184.209 76.8065 184.933 76.692Z" fill="#F7A491"/>
<path d="M202.027 30.9355C197.485 32.4786 194.901 44.8493 194.901 44.8493C194.901 44.8493 202.027 46.8408 203.853 45.8033C203.853 45.8033 205.927 36.5998 206.67 36.9218L202.027 30.9355Z" fill="#6A97CE"/>
<path d="M166.886 98.0645C165.955 100.545 165.227 103.097 164.71 105.696C164.679 105.904 164.969 106.889 164.948 107.127C162.157 110.943 158.146 111.773 154.71 112.016C156.46 110.304 159.034 108.677 159.157 108.136C160.001 104.84 160.594 101.484 160.931 98.0978C163.067 99.0828 164.517 98.2958 166.886 98.0645Z" fill="#F7A491"/>
<path d="M206.423 56.9824L212.575 74.3043C212.575 74.3043 202.709 76.1646 199.021 76.8419C195.333 77.5192 174.736 78.4207 174.202 78.788C173.814 79.0599 169.557 92.8592 167.655 100.455C165.498 100.932 161.805 100.36 159.841 99.6825C160.903 88.8 164.736 71.5616 165.964 69.6846C167.95 66.6295 206.423 56.9824 206.423 56.9824Z" fill="#005DB5"/>
<path d="M182.44 105.66C181.987 108.273 181.748 110.919 181.726 113.571C181.726 113.779 182.202 114.704 182.219 114.919C180.19 119.188 176.407 120.759 173.076 121.644C174.476 119.631 176.7 117.554 176.721 116.998C176.932 113.601 176.887 110.193 176.586 106.803C178.876 107.375 180.155 106.333 182.44 105.66Z" fill="#F7A491"/>
<path d="M213.589 57.8867L215.97 61.9602C216.82 63.4193 217.345 65.0458 217.507 66.7275C217.669 68.4093 217.466 70.1062 216.91 71.7015C216.355 73.2968 215.46 74.7524 214.289 75.9681C213.117 77.1837 211.697 78.1305 210.125 78.7431L210.018 78.786C206.523 80.143 186.447 84.8986 186.004 85.3565C185.673 85.6952 184.073 100.043 183.623 107.87C181.592 108.741 177.859 108.874 175.802 108.586C174.809 97.6986 175.35 80.0453 176.204 77.9704C177.604 74.5813 213.589 57.8867 213.589 57.8867Z" fill="#005DB5"/>
<path d="M181.423 113.693C181.957 113.101 183.919 116.357 184.409 117.051C184.961 117.83 184.804 118.419 184.738 118.541C184.564 118.863 174.217 124.961 171.693 125.395C171.426 125.41 171.162 125.34 170.938 125.195C169.952 124.32 174.49 117.861 176.528 117.015C177.847 116.461 179.019 116.347 181.423 113.693Z" fill="#13375B"/>
<path d="M164.381 105.823C165.017 105.346 166.333 108.909 166.686 109.682C167.081 110.552 166.817 111.113 166.729 111.211C166.49 111.494 155.193 115.542 152.634 115.504C152.365 115.47 152.115 115.35 151.919 115.163C151.115 114.12 156.781 108.628 158.943 108.177C160.348 107.872 161.519 107.981 164.381 105.823Z" fill="#13375B"/>
<path d="M206.335 30.8923C206.179 30.8817 206.025 30.8496 205.878 30.7969C205.032 30.6467 203.19 30.4249 201.754 31.0354C200.009 31.7748 197.302 38.6673 197.468 45.741C197.533 46.8238 197.599 47.7921 197.654 48.467C198.094 53.8117 199.625 63.8404 199.709 63.8952C201.79 65.238 214.354 60.0316 215.218 58.8868C216.082 57.7421 216.592 43.8617 217.011 43.1581L217.837 31.076C216.384 30.6395 208.568 30.8756 206.335 30.8923Z" fill="#9BC1F9"/>
<path d="M211.427 26.4424C211.427 26.4424 210.618 30.6352 210.78 32.2879C210.941 33.9407 210.163 39.2687 206.67 39.283C203.177 39.2973 206.006 32.5097 206.334 30.8903C206.663 29.271 206.742 24.2578 206.742 24.2578L211.427 26.4424Z" fill="#F7A491"/>
<path d="M206.67 26.7739C206.725 25.4002 206.741 24.2578 206.741 24.2578L211.427 26.4424C211.427 26.4424 211.26 27.2986 211.094 28.3909C209.044 28.8035 207.558 28.0451 206.67 26.7739Z" fill="#005DB5"/>
<path d="M213.139 14.8754C214.312 15.6082 215.186 16.7363 215.603 18.0569C216.265 20.232 215.513 25.8414 210.841 27.196C206.17 28.5507 204.158 24.1075 205.127 20.635C206.096 17.1625 208.177 12.7575 213.139 14.8754Z" fill="#F7A491"/>
<path d="M204.544 19.2832C204.634 20.2157 205.148 20.9288 205.691 20.8763C206.234 20.8239 206.598 20.0225 206.508 19.09C206.417 18.1575 205.903 17.4444 205.36 17.4969C204.817 17.5493 204.451 18.3507 204.544 19.2832Z" fill="#F7A491"/>
<path d="M212.592 14.5918C212.592 14.5918 213.437 20.8499 215.449 21.9851C217.461 23.1204 216.623 25.8917 216.623 25.8917C216.623 25.8917 218.456 19.4523 216.861 17.3726C215.266 15.293 212.592 14.5918 212.592 14.5918Z" fill="#13375B"/>
<path d="M214.26 22.881C213.713 23.6967 213.715 24.6578 214.26 25.0275C214.806 25.3971 215.689 25.0275 216.248 24.2238C216.808 23.42 216.796 22.447 216.248 22.0773C215.701 21.7076 214.808 22.0654 214.26 22.881Z" fill="#F7A491"/>
<path d="M207.468 23.2285L210.753 24.0561C210.753 24.0561 210.358 25.3058 208.903 24.9838C207.127 24.5927 207.468 23.2285 207.468 23.2285Z" fill="white"/>
<path d="M223.784 76.1686L237.953 75.4531C237.953 75.4531 232.139 79.6387 232.02 79.6387C231.901 79.6387 227.389 77.8548 227.191 77.8548C226.994 77.8548 223.784 76.1686 223.784 76.1686Z" fill="#24A3F2"/>
<path d="M507.455 393.527C507.455 393.527 507.732 398.45 507.734 398.459C507.836 399.084 508.239 400.63 508.239 401.197C508.239 403.344 498.784 399.385 500.903 398.44C501.094 398.354 502.094 397.706 502.163 396.981C502.26 395.86 502.506 393.597 502.506 393.597L507.455 393.527Z" fill="#F7A491"/>
<path d="M500.812 398.457C501.916 398.785 503.036 399.057 504.167 399.273C505.305 399.435 506.803 398.061 507.607 398.433C508.493 398.841 508.457 402.519 508.457 402.519C508.457 402.519 496.553 403.566 493.22 402.483C491.882 402.058 496.274 399.981 500.812 398.457Z" fill="#AADEFE"/>
<path d="M523.198 393.271C523.198 393.271 523.476 398.194 523.479 398.204C523.579 398.828 523.981 400.374 523.981 400.941C523.981 403.076 514.526 399.129 516.645 398.184C516.838 398.099 518.141 396.968 518.203 396.241C518.3 395.122 518.25 393.341 518.25 393.341L523.198 393.271Z" fill="#F7A491"/>
<path d="M516.67 398.163C517.774 398.493 518.894 398.765 520.027 398.979C521.162 399.144 522.662 397.77 523.465 398.14C524.35 398.55 524.386 402.227 524.386 402.227C524.386 402.227 512.567 402.704 509.065 402.192C507.689 401.987 512.132 399.685 516.67 398.163Z" fill="#AADEFE"/>
<path d="M520.395 315.078C520.395 315.078 521.998 323.383 521.348 329.679C520.698 335.975 520.634 358.346 520.634 358.346L523.645 394.12L517.217 394.271C517.217 394.271 510.208 358.496 510.336 359.417C510.465 360.338 507.986 334.23 507.986 334.23L516.343 314.289L520.395 315.078Z" fill="#1074D2"/>
<path d="M518.153 309.717C518.153 309.717 525.412 317.375 522.712 325.739C521.627 329.099 511.522 361.198 511.382 363.822C511.241 366.445 507.96 395.444 507.96 395.444L501.087 395.236L499.599 362.994L501.563 319.552L505.737 312.226L518.153 309.717Z" fill="#1074D2"/>
<path d="M474.084 284.79C476.465 282.134 481.634 278.351 481.634 278.351C481.634 278.351 484.729 275.716 485.972 275.282C487.822 274.642 490.989 272.94 495.572 279.894C498.848 284.871 519.535 310.641 522.931 311.507L500.755 322.139C500.148 317.063 489.189 307.474 487.613 305.682C484.086 301.685 471.834 287.318 474.084 284.79Z" fill="#005DB5"/>
<path d="M475.12 273.994L482.025 278.049C482.025 278.049 482.22 283.956 479.961 285.49C478.056 286.777 476.627 283.687 476.627 283.687C476.627 283.687 474.058 280.109 472.104 279.012C470.149 277.915 475.12 273.994 475.12 273.994Z" fill="#F7A491"/>
<path d="M476.278 276.586C475.936 278.17 475.33 279.685 474.485 281.067C473.725 280.242 472.868 279.434 472.104 278.999C471.204 278.487 471.778 277.38 472.654 276.335C473.895 275.043 475.118 273.986 475.118 273.986L476.444 274.764C476.533 275.277 476.378 276.183 476.278 276.586Z" fill="#005DB5"/>
<path d="M471.52 263.84C471.637 263.697 477.315 270.778 476.615 274.096C475.915 277.413 472.482 280.447 470.096 279.614C467.458 278.691 462.551 270.356 464.311 266.309C466.07 262.262 471.52 263.84 471.52 263.84Z" fill="#F7A491"/>
<path d="M465.304 261.608C467.78 260.227 471.818 259.831 474.828 261.415C478.537 263.358 479.382 268.255 478.22 271.241C477.059 274.227 478.39 275.913 478.39 275.913L476.421 274.763C476.421 274.763 475.271 272.965 475.121 271.534C474.971 270.103 472.885 270.356 471.868 269.705C471.083 269.204 470.083 267.58 468.814 266.735C468.814 266.735 465.621 266.344 464.052 267.227C461.378 268.732 461.759 263.583 465.304 261.608Z" fill="#13375B"/>
<path d="M473.47 270.9C473.451 271.962 473.946 272.83 474.589 272.842C475.232 272.853 475.756 272 475.78 270.934C475.804 269.868 475.304 269.002 474.661 268.992C474.018 268.983 473.489 269.837 473.47 270.9Z" fill="#F7A491"/>
<path d="M467.653 276.537L470.66 274.285C470.66 274.285 471.456 275.504 470.163 276.532C468.584 277.779 467.653 276.537 467.653 276.537Z" fill="white"/>
<path d="M460.104 321.329C460.857 320.227 461.185 318.637 462.228 317.423C462.69 316.926 463.206 316.482 463.766 316.099C468.766 313.163 481.823 305.605 482.337 305.009C482.939 304.313 491.844 289.493 491.844 289.493L483.846 287.678L476.03 301.51C475.378 302.028 462.971 311.215 462.971 311.215C462.971 311.215 460.504 313.144 459.161 314.048C458.551 314.396 457.908 314.684 457.242 314.907C456.514 315.159 455.128 315.861 454.847 316.099C454.521 316.388 453.869 317.001 453.481 317.375C453.093 317.75 452.623 318.174 452.443 318.398C452.228 318.583 451.987 318.734 451.728 318.847C451.645 318.888 451.576 318.953 451.53 319.034C451.484 319.115 451.464 319.208 451.473 319.301C451.481 319.394 451.517 319.482 451.576 319.554C451.635 319.625 451.715 319.677 451.804 319.703C452.183 319.81 452.697 319.572 453.014 319.424C453.914 318.999 455.012 317.859 455.069 317.993C455.126 318.126 454.012 320.578 453.902 320.867C453.793 321.155 452.514 324.005 452.447 324.64C452.381 325.274 452.764 325.422 453.05 325.191C453.288 324.99 455.352 321.184 455.352 321.184C455.352 321.184 455.616 320.707 455.719 320.976C455.821 321.246 453.959 324.714 453.776 325.281C453.593 325.849 453.74 326.314 454.252 326.116C454.89 325.877 456.65 322.062 456.65 322.062C456.65 322.062 456.888 321.585 457.035 321.751C457.183 321.918 455.559 324.833 455.54 325.169C455.521 325.505 455.826 325.837 456.254 325.555C456.771 325.224 458.314 321.806 458.314 321.806C458.314 321.806 458.504 321.58 458.552 321.74C458.6 321.899 457.397 324.485 457.488 324.861C457.494 324.902 457.508 324.942 457.53 324.977C457.551 325.012 457.58 325.043 457.614 325.066C457.648 325.09 457.686 325.107 457.727 325.115C457.767 325.123 457.809 325.123 457.85 325.114C458.521 325.109 459.352 322.431 460.104 321.329Z" fill="#F8A492"/>
<path d="M489.647 297.336C489.647 297.336 487.042 296.506 485.373 295.738C484.254 295.225 479.373 292.792 479.373 292.792C479.373 292.792 481.478 283.901 482.899 280.703C488.12 268.972 494.051 277.064 494.856 278.95C496.658 283.155 489.647 297.336 489.647 297.336Z" fill="#1074D2"/>
<path d="M307.718 266.6L310.196 264.742C310.196 264.742 310.853 265.746 309.787 266.595C308.487 267.63 307.718 266.6 307.718 266.6Z" fill="white"/>
<path d="M598.697 402.271H22.8346C22.1203 402.271 21.5322 403.018 21.5322 403.941C21.5322 404.862 22.1155 405.61 22.8346 405.61H598.697C599.412 405.61 600 404.866 600 403.941C600 403.006 599.416 402.271 598.697 402.271Z" fill="#023E78"/>
<path d="M238.274 75.441C238.215 75.2907 238.084 75.2884 237.95 75.2836C236.65 75.2642 235.351 75.1671 234.062 74.9926C233.848 74.9642 233.638 74.9106 233.436 74.8328C233.092 74.6977 232.713 74.6842 232.36 74.7947C232.165 74.8428 231.964 74.8636 231.762 74.8567C231.11 74.8567 229.243 74.2175 228.286 74.0506C228.179 74.0316 228.08 73.9818 228 73.9072C227.921 73.8327 227.865 73.7367 227.839 73.6308C226.886 69.896 224.875 61.5177 224.613 58.7607C224.277 55.2381 221.848 39.3496 221.848 39.3496L215.349 41.1669C215.349 41.1669 218.022 52.8937 218.763 58.577C219.334 62.9677 223.715 72.2857 225.089 74.964C225.758 76.9602 227.265 77.0151 227.613 77.058C227.813 77.0815 227.997 77.1794 228.129 77.3323C228.363 77.6119 228.64 77.8533 228.948 78.0478C229.171 78.1929 229.362 78.383 229.508 78.6058C229.784 79.0089 230.032 79.431 230.277 79.8555C230.439 80.1346 230.608 80.2252 230.848 80.1584C230.971 80.1263 231.078 80.0493 231.148 79.9426C231.217 79.8359 231.244 79.7071 231.224 79.5813C231.209 79.127 231.075 78.6846 230.836 78.2982C230.729 78.1645 230.675 77.9959 230.684 77.8247C230.694 77.6535 230.765 77.4918 230.886 77.3704C231.022 77.1703 231.182 76.9877 231.362 76.8267C231.45 76.7413 231.555 76.6757 231.67 76.6346C231.785 76.5934 231.907 76.5776 232.029 76.5882C232.499 76.709 232.976 76.7975 233.458 76.8529L233.851 76.934L234.065 76.9793C234.098 76.9793 234.779 77.0628 235.017 77.0628C235.208 77.0628 235.515 77.0771 235.777 77.089C236.032 77.0746 236.285 77.0371 236.534 76.9769C236.759 76.9749 236.975 76.89 237.141 76.7384C237.21 76.674 237.279 76.6025 237.243 76.4999C237.228 76.4552 237.199 76.4162 237.162 76.3877C237.124 76.3593 237.079 76.3427 237.031 76.3401C236.877 76.3115 236.079 76.2137 236.079 76.1803C236.317 76.1803 237.069 76.1613 237.31 76.1565C237.465 76.156 237.619 76.1234 237.761 76.0606C237.903 75.9978 238.031 75.9062 238.136 75.7916C238.231 75.6867 238.334 75.5913 238.274 75.441Z" fill="#F7A491"/>
<path d="M217.91 31.0486C221.117 30.4643 223.765 44.8431 223.765 44.8431C223.765 44.8431 216.636 46.8345 214.81 45.7971C214.81 45.7971 212.737 36.5936 211.996 36.9156L217.91 31.0486Z" fill="#9BC1F9"/>
<path d="M140.344 289.464C140.558 288.853 137.599 288.362 137.441 287.747C137.284 287.131 141.177 287.081 141.315 286.54C141.572 285.543 137.049 286.33 137.139 285.862C137.23 285.395 141.853 284.355 141.353 283.554C140.853 282.752 136.67 285.135 136.544 284.594C136.418 284.052 140.632 282.729 140.556 281.536C140.515 280.899 133.637 284.711 132.839 284.365C132.042 284.019 133.699 281.026 133.063 280.582C132.427 280.139 130.604 286.664 130.165 286.881C129.727 287.098 120.435 292.412 117.128 293.256C116.725 292.147 115.859 290.651 115.504 289.602C113.649 290.923 112.271 291.589 110.356 292.793C111.745 296.275 113.718 300.089 114.685 300.527C117.628 301.858 129.008 292.402 131.28 290.785C133.551 289.168 134.851 289.69 136.394 289.178C137.937 288.665 140.132 290.079 140.344 289.464Z" fill="#F7A491"/>
<path d="M109.959 294.472C109.959 294.472 107.412 283.203 107.854 279.923C108.297 276.644 112.173 273.608 114.861 274.736C117.549 275.864 118.768 291.61 118.768 291.61L109.959 294.472Z" fill="#AADEFE"/>
</svg>
