<svg width="64" height="64" viewBox="0 0 64 64" fill="none" xmlns="http://www.w3.org/2000/svg">
<path d="M0 8C0 3.58172 3.58172 0 8 0H56C60.4183 0 64 3.58172 64 8V56C64 60.4183 60.4183 64 56 64H8C3.58172 64 0 60.4183 0 56V8Z" fill="#DAF1FF"/>
<path d="M36.2857 19.036C38.5935 19.036 40.4643 17.1652 40.4643 14.8574H42.3929C42.3929 17.1652 44.2637 19.036 46.5714 19.036V20.9646C44.2637 20.9646 42.3929 22.8354 42.3929 25.1431H40.4643C40.4643 22.8354 38.5935 20.9646 36.2857 20.9646V19.036ZM14 30.286C19.6806 30.286 24.2857 25.6809 24.2857 20.0003H27.7143C27.7143 25.6809 32.3194 30.286 38 30.286V33.7146C32.3194 33.7146 27.7143 38.3196 27.7143 44.0003H24.2857C24.2857 38.3196 19.6806 33.7146 14 33.7146V30.286ZM41.8571 35.4288C41.8571 38.5058 39.3627 41.0003 36.2857 41.0003V43.5717C39.3627 43.5717 41.8571 46.0662 41.8571 49.1431H44.4286C44.4286 46.0662 46.923 43.5717 50 43.5717V41.0003C46.923 41.0003 44.4286 38.5058 44.4286 35.4288H41.8571Z" fill="#005DB5"/>
</svg>
