<svg width="64" height="64" viewBox="0 0 64 64" fill="none" xmlns="http://www.w3.org/2000/svg">
<path d="M0 8C0 3.58172 3.58172 0 8 0H56C60.4183 0 64 3.58172 64 8V56C64 60.4183 60.4183 64 56 64H8C3.58172 64 0 60.4183 0 56V8Z" fill="#DAF1FF"/>
<path d="M46.7623 19.9963H48.1053C49.1517 19.9963 50 20.8446 50 21.891V35.154C50 36.2004 49.1517 37.0487 48.1053 37.0487H44.3158L36.4181 25.9918C35.4757 24.6725 33.7985 24.0989 32.2456 24.5648L27.5367 25.9775C26.2014 26.378 24.754 26.0131 23.7683 25.0274L23.2136 24.4727C22.3681 23.6272 22.5075 22.2196 23.5023 21.5564L33.7357 14.7341C34.9844 13.9018 36.6062 13.8845 37.8723 14.6901L45.7452 19.7001C46.0491 19.8936 46.4021 19.9963 46.7623 19.9963ZM19.7355 35.7125L16.6741 38.3913C15.7809 39.1727 15.8179 40.5736 16.7511 41.3071L26.4914 48.96C27.401 49.6747 28.7332 49.4146 29.307 48.4102L30.6407 46.0763C31.4555 44.6505 31.2592 42.8623 30.1545 41.6472L25.0348 36.0153C23.6458 34.4874 21.2894 34.3529 19.7355 35.7125ZM23.5599 18.1017H15.8947C14.8483 18.1017 14 18.95 14 19.9964V34.2368C14 35.0106 14.2364 35.7554 14.6635 36.3789C14.7088 36.3361 14.7552 36.2938 14.8025 36.2524L17.864 33.5736C20.5833 31.1942 24.7071 31.4297 27.1377 34.1036L32.2577 39.7354C34.1907 41.8617 34.5342 44.9912 33.1084 47.4863L31.8687 49.656C32.9352 50.0601 34.1503 49.969 35.1621 49.3619L43.5163 44.3494C44.4644 43.7804 44.7259 42.5239 44.0836 41.6239L34.1047 27.6437C33.8689 27.3139 33.4496 27.1705 33.0614 27.287L28.3526 28.6996C26.0158 29.4007 23.4829 28.7622 21.7578 27.037L21.2031 26.4823C19.0895 24.3687 19.4379 20.8497 21.9251 19.1916L23.5599 18.1017Z" fill="#005DB5"/>
</svg>
