<svg width="64" height="64" viewBox="0 0 64 64" fill="none" xmlns="http://www.w3.org/2000/svg">
<path d="M0 8C0 3.58172 3.58172 0 8 0H56C60.4183 0 64 3.58172 64 8V56C64 60.4183 60.4183 64 56 64H8C3.58172 64 0 60.4183 0 56V8Z" fill="#DAF1FF"/>
<path d="M32 28.4C35.9764 28.4 39.2 25.1765 39.2 21.2C39.2 17.2235 35.9764 14 32 14C28.0235 14 24.8 17.2235 24.8 21.2C24.8 25.1765 28.0235 28.4 32 28.4ZM20.3 33.8C22.7853 33.8 24.8 31.7853 24.8 29.3C24.8 26.8147 22.7853 24.8 20.3 24.8C17.8147 24.8 15.8 26.8147 15.8 29.3C15.8 31.7853 17.8147 33.8 20.3 33.8ZM48.2 29.3C48.2 31.7853 46.1853 33.8 43.7 33.8C41.2147 33.8 39.2 31.7853 39.2 29.3C39.2 26.8147 41.2147 24.8 43.7 24.8C46.1853 24.8 48.2 26.8147 48.2 29.3ZM32 30.2C36.9705 30.2 41 34.2295 41 39.2V50H23V39.2C23 34.2295 27.0294 30.2 32 30.2ZM19.4 39.1998C19.4 37.9526 19.5812 36.7477 19.9187 35.6101L19.6136 35.6367C16.4571 35.9787 14 38.6524 14 41.8998V49.9998H19.4V39.1998ZM50 49.9998V41.8998C50 38.548 47.3826 35.8075 44.0812 35.6101C44.4187 36.7477 44.6 37.9526 44.6 39.1998V49.9998H50Z" fill="#005DB5"/>
</svg>
